%
M48
M72
T01C0.0197
T02C0.0320
T03C0.0400
T04C0.0472
T05C0.0512
T06C0.0620
T07C0.0960
T08C0.1300
%
T01
X14801Y12117
X14851Y17167
X25001Y17317
X30051Y15067
X34351Y14967
X36551Y15667
X35551Y16967
X31401Y17767
X39451Y13967
X40551Y14067
X41551Y14067
X42151Y14017
X42751Y14667
X43251Y14567
X43551Y13867
X43951Y14167
X44551Y13867
X46751Y14267
X47201Y14967
X50451Y14667
X52251Y15017
X50451Y16367
X53151Y18467
X54751Y19467
X55451Y18467
X56451Y18867
X56551Y19317
X56751Y18517
X57151Y18017
X57051Y17567
X57751Y17017
X58551Y17417
X58251Y17767
X57951Y18167
X58851Y17767
X59151Y18117
X59451Y17767
X59751Y18117
X60051Y18617
X60451Y18417
X61251Y18767
X61651Y18567
X58151Y19367
X58251Y20567
X61951Y21567
X61251Y22967
X58251Y22967
X53851Y24667
X55251Y25667
X55151Y26167
X55751Y26167
X56351Y26167
X56451Y25667
X56051Y25467
X56851Y25467
X57251Y25667
X57451Y26067
X57851Y25667
X59201Y25217
X61151Y25067
X62001Y25217
X61151Y26267
X59551Y26467
X61851Y27567
X62351Y27517
X63151Y27567
X63451Y27967
X63851Y28167
X63751Y27617
X62951Y28217
X63101Y28667
X63451Y29267
X62851Y29667
X61851Y29667
X60751Y30667
X59151Y30667
X59151Y31867
X60751Y31867
X60751Y33067
X59151Y33067
X61351Y35067
X59451Y35267
X57251Y35267
X56451Y34867
X55151Y34867
X55851Y34167
X53251Y35167
X52751Y34767
X53051Y34367
X52651Y34067
X53051Y33767
X52651Y33467
X51151Y33267
X49951Y31867
X49601Y32167
X49151Y31667
X48751Y31467
X50451Y30867
X48051Y30517
X45551Y29967
X44201Y29717
X43401Y30317
X42251Y30317
X41801Y29217
X42601Y28717
X42251Y28367
X42951Y27767
X42251Y27117
X41251Y27117
X39401Y27367
X37751Y27017
X36251Y27367
X35751Y27017
X35301Y26667
X34601Y26467
X34001Y26917
X33401Y27617
X33051Y27267
X35351Y28117
X36101Y27967
X36451Y28317
X36801Y28667
X37301Y28917
X37451Y28417
X38651Y28717
X38251Y29817
X37251Y30117
X35351Y29817
X32801Y28617
X32351Y28967
X29651Y27867
X29451Y28467
X29451Y29667
X26601Y29917
X26601Y29417
X26901Y28017
X27851Y27867
X29451Y26767
X30251Y26217
X30751Y26217
X29451Y24967
X27151Y24967
X26101Y26417
X23351Y26067
X22701Y25817
X22101Y26267
X18601Y26367
X18601Y25617
X16101Y25617
X16151Y26367
X14801Y26567
X21601Y29217
X21851Y29667
X21751Y31967
X21251Y31967
X22151Y33217
X22651Y33217
X23451Y33217
X24051Y33217
X24651Y33217
X25251Y33217
X26101Y32367
X26601Y32317
X26601Y31817
X26651Y30867
X29251Y30867
X29051Y32067
X30151Y33317
X30551Y33967
X31251Y33467
X32101Y33867
X32251Y33367
X34451Y34167
X35051Y34367
X34251Y34767
X33851Y34967
X33451Y34767
X31951Y35467
X29301Y36117
X29301Y36617
X27651Y35767
X28801Y35367
X25401Y36117
X24901Y36117
X24401Y36117
X23901Y36117
X23401Y36117
X23401Y37417
X21851Y37917
X21751Y39617
X24101Y39617
X25101Y39617
X26501Y39617
X26551Y40567
X27701Y41417
X28501Y41017
X30801Y40517
X33251Y40567
X33751Y40567
X34251Y40567
X36151Y38967
X35851Y38267
X35451Y38567
X34851Y37967
X34851Y37467
X34251Y37667
X33751Y38467
X33151Y38567
X32451Y37967
X32101Y37667
X32451Y37367
X32001Y38467
X31351Y38667
X31051Y39017
X30751Y38667
X30451Y39017
X29251Y38517
X28951Y38867
X23901Y41417
X22851Y41417
X23901Y42417
X20751Y43717
X20251Y43517
X19751Y43317
X19251Y43117
X18251Y42917
X17751Y42717
X17251Y42517
X16751Y42317
X14801Y41217
X22301Y44167
X23301Y44167
X24301Y44167
X26301Y44167
X27301Y44167
X28301Y44167
X29301Y44167
X30301Y44167
X32301Y44167
X34451Y43167
X34851Y43367
X35251Y43567
X35651Y43767
X36001Y44067
X36551Y44217
X39101Y44417
X43801Y43667
X44301Y43867
X44801Y44067
X45301Y44267
X46751Y42767
X46551Y42267
X46451Y41767
X47151Y41467
X47551Y41667
X47951Y41467
X48351Y41267
X49451Y42067
X51051Y40667
X50651Y40467
X51451Y40867
X51851Y41067
X52251Y41267
X52651Y41467
X53051Y41667
X53451Y41867
X49951Y43467
X49551Y43267
X49151Y43067
X50351Y43667
X50751Y43867
X51151Y44067
X51551Y44267
X58451Y45417
X61151Y45417
X64101Y43567
X63051Y41667
X60651Y41417
X59451Y39967
X61451Y39367
X62051Y39617
X63751Y39667
X63051Y37417
X62651Y36867
X64951Y36917
X66151Y36617
X65051Y35067
X64951Y33567
X66851Y33667
X69451Y34267
X69451Y35267
X71851Y34267
X73151Y33467
X73151Y32967
X74451Y32117
X75851Y31617
X76601Y32117
X77351Y31617
X78651Y32117
X80751Y32667
X83051Y31267
X83501Y30367
X85001Y30767
X85651Y29967
X87451Y30267
X88451Y32767
X86151Y32967
X85551Y32617
X86151Y33967
X84301Y34167
X80851Y34767
X80851Y35667
X83151Y36467
X80851Y37467
X78501Y37967
X78051Y37967
X78051Y38917
X78651Y38917
X79551Y39967
X80851Y38667
X83151Y38667
X83101Y40767
X84651Y42567
X85801Y42567
X84351Y43867
X79451Y43367
X79451Y44467
X76451Y43367
X74551Y43367
X74551Y44467
X76451Y45867
X71551Y45867
X70351Y44517
X71551Y43367
X72251Y40917
X73851Y39367
X73451Y38167
X70351Y39367
X76601Y36017
X78201Y33867
X72251Y31567
X71751Y31567
X69351Y31867
X69351Y32367
X67001Y31767
X67201Y30967
X66701Y30867
X65051Y31267
X67251Y29767
X66801Y29267
X67001Y28367
X66751Y27717
X69451Y28567
X69751Y29267
X69451Y29967
X71851Y29667
X73151Y27667
X75851Y27667
X77351Y27667
X80051Y27667
X80051Y25667
X81051Y25867
X83151Y23967
X85351Y21867
X85351Y20867
X85351Y19867
X82151Y20167
X82151Y21167
X82151Y19167
X82151Y18167
X78751Y15917
X81751Y14967
X81251Y14067
X83851Y14467
X85351Y14867
X83851Y15467
X85351Y13867
X76301Y17867
X75151Y18617
X75851Y19267
X73651Y19317
X72651Y18467
X71351Y17967
X70351Y18767
X66651Y19867
X66051Y19767
X66251Y19167
X65651Y19167
X68301Y21467
X67701Y22167
X66751Y22167
X69201Y22067
X69201Y22567
X69051Y23167
X69501Y23267
X69901Y23067
X70201Y23417
X69901Y23767
X69901Y24267
X72351Y23267
X70351Y22967
X70251Y22267
X67201Y23967
X66601Y24067
X67101Y24467
X70001Y25667
X72201Y26417
X70251Y27067
X74501Y25667
X76601Y24817
X77701Y22667
X74601Y22667
X87251Y23767
X87901Y27467
X88351Y37167
X88351Y38167
X87151Y40917
X90801Y40917
X89251Y43867
X91151Y45867
X86251Y46567
X81351Y46567
X59951Y37517
X59951Y37017
X55601Y38867
X53951Y39267
X53251Y39467
X52851Y39167
X52451Y39467
X51951Y38367
X51201Y37617
X51951Y36517
X53051Y37617
X54551Y36867
X54051Y36167
X51151Y35217
X50051Y34867
X48051Y34167
X47651Y34467
X47651Y33867
X48051Y33567
X49251Y33267
X46201Y33917
X43751Y34667
X42551Y34267
X42651Y33767
X43451Y33567
X43751Y33117
X43201Y32067
X43401Y31667
X43601Y31267
X43801Y30867
X44501Y31817
X40751Y34067
X40151Y34167
X39751Y33967
X38251Y34567
X38051Y35517
X36551Y35367
X36051Y34967
X35951Y33567
X35351Y33567
X36451Y36867
X38051Y37767
X38851Y37817
X39501Y37567
X39951Y37667
X39951Y37067
X39251Y36967
X40551Y37667
X41251Y37667
X40851Y38267
X41251Y38767
X42151Y38267
X42851Y38267
X43051Y38667
X43351Y39067
X45301Y38867
X44051Y39867
X47151Y38867
X48751Y38967
X49251Y38967
X49751Y38967
X49751Y38167
X49251Y38167
X48751Y38167
X47151Y35767
X45301Y35767
X44851Y35317
X43951Y36067
X44251Y36467
X43151Y35467
X39851Y38467
X39501Y39017
X40151Y39067
X38651Y39167
X37551Y39867
X38501Y40517
X37951Y41067
X37451Y41267
X36951Y41067
X31051Y42367
X30551Y42367
X30051Y42367
X29551Y42367
X29101Y42517
X28601Y42517
X27701Y42417
X36751Y46617
X17151Y45167
X14851Y46667
X14801Y37567
X14801Y34667
X16151Y33017
X16101Y32167
X18601Y32167
X18601Y33017
X14801Y30617
X27101Y33567
X43001Y29067
X44451Y28317
X45551Y27367
X43951Y25967
X45551Y24717
X48351Y24717
X51951Y25267
X53251Y26467
X52651Y27367
X53251Y28067
X52851Y28467
X54851Y28067
X54851Y27067
X55351Y28967
X54851Y29467
X52801Y30767
X53151Y31067
X52851Y31517
X53151Y31867
X54851Y30967
X55351Y32667
X59551Y28267
X48751Y27367
X44801Y22667
X47751Y21467
X48151Y21867
X48051Y22367
X50851Y22267
X51351Y22267
X51851Y22267
X52351Y22267
X52851Y22267
X53351Y22267
X50951Y21267
X50751Y20867
X50551Y20467
X49651Y20267
X51551Y20067
X51551Y20867
X44251Y19467
X41501Y19067
X41351Y22667
X56151Y16667
X56851Y16067
X58651Y16067
X59151Y16067
X59651Y16067
X60151Y16067
X61851Y15967
X61851Y15467
X62351Y15967
X63501Y15567
X65051Y14367
X65601Y14467
X67651Y14767
X68601Y15017
X69651Y14667
X70551Y14767
X70951Y14517
X71351Y14767
X71801Y14767
X71651Y15317
X71451Y15767
X72001Y15867
X72651Y15567
X72701Y16067
X72701Y16567
X73651Y15767
X74351Y15767
X67651Y14167
X59651Y14167
X29051Y12017
X14851Y22367
T02
X32451Y16567
X32451Y15567
X53651Y15467
X53651Y16467
X71101Y24467
X71101Y25467
X71051Y27167
X71051Y28167
X82251Y25317
X82251Y24317
X84201Y23767
X84201Y22767
X86451Y24667
X86451Y25667
X86451Y29467
X86451Y30467
X78201Y35317
X78201Y36317
X75901Y36667
X75901Y37667
X75901Y39367
X75901Y40367
X75901Y34967
X75901Y33967
X50351Y28617
X47151Y28617
X47151Y26717
X50351Y26717
T03
X73501Y23967
X74501Y23967
X75501Y23967
X77701Y23967
X78701Y23967
X79701Y23967
X88551Y20647
X89551Y20107
X88551Y19567
X89551Y19027
X88551Y18487
X89551Y17947
X88551Y17407
X89551Y16867
X88551Y16327
X89551Y15787
X88551Y15247
X89551Y14707
X88551Y14167
X89551Y13627
X88551Y13087
X82551Y13067
X81551Y13067
X80551Y13067
X79551Y13067
X78551Y13067
X77551Y13067
X76551Y13067
X75551Y13067
X74551Y13067
X73551Y13067
X72551Y13067
X71551Y13067
X70551Y13067
X69551Y13067
X68551Y13067
X67551Y13067
X66551Y13067
X65551Y13067
X64551Y13067
X63551Y13067
X62551Y13067
X61551Y13067
X60551Y13067
X59551Y13067
X58551Y13067
X57551Y13067
X56551Y13067
X55551Y13067
X54551Y13067
X53551Y13067
X52551Y13067
X52551Y12067
X53551Y12067
X54551Y12067
X55551Y12067
X56551Y12067
X57551Y12067
X58551Y12067
X59551Y12067
X60551Y12067
X61551Y12067
X62551Y12067
X63551Y12067
X64551Y12067
X65551Y12067
X66551Y12067
X67551Y12067
X68551Y12067
X69551Y12067
X70551Y12067
X71551Y12067
X72551Y12067
X73551Y12067
X74551Y12067
X75551Y12067
X76551Y12067
X77551Y12067
X78551Y12067
X79551Y12067
X80551Y12067
X81551Y12067
X82551Y12067
X76051Y15567
X75051Y15567
X77551Y17067
X77551Y18067
X80551Y18067
X80551Y17067
X48551Y13067
X47551Y13067
X46551Y13067
X45551Y13067
X44551Y13067
X43551Y13067
X42551Y13067
X41551Y13067
X40551Y13067
X39551Y13067
X38551Y13067
X37551Y13067
X36551Y13067
X35551Y13067
X34551Y13067
X33551Y13067
X32551Y13067
X31551Y13067
X31551Y12067
X32551Y12067
X33551Y12067
X34551Y12067
X35551Y12067
X36551Y12067
X37551Y12067
X38551Y12067
X39551Y12067
X40551Y12067
X41551Y12067
X42551Y12067
X43551Y12067
X44551Y12067
X45551Y12067
X46551Y12067
X47551Y12067
X48551Y12067
X62551Y42067
X63551Y42067
X63551Y43067
X62551Y43067
X62551Y44067
X63551Y44067
X63551Y45067
X62551Y45067
X56301Y45417
X55301Y45417
X54301Y45417
X53301Y45417
X52301Y45417
X51301Y45417
X50301Y45417
X49301Y45417
X48301Y45417
X47301Y45417
X46301Y45417
X45301Y45417
X44301Y45417
X43301Y45417
X42301Y45417
X41301Y45417
X40301Y45417
X39301Y45417
X38801Y46417
X39801Y46417
X40801Y46417
X41801Y46417
X42801Y46417
X43801Y46417
X44801Y46417
X45801Y46417
X46801Y46417
X47801Y46417
X48801Y46417
X49801Y46417
X50801Y46417
X51801Y46417
X52801Y46417
X53801Y46417
X54801Y46417
X55801Y46417
X71551Y42067
X72551Y42067
X73551Y42067
X74551Y42067
X76451Y42067
X77451Y42067
X78451Y42067
X79451Y42067
X36301Y45417
X35301Y45417
X34301Y45417
X33301Y45417
X32301Y45417
X31301Y45417
X30301Y45417
X29301Y45417
X28301Y45417
X27301Y45417
X26301Y45417
X25301Y45417
X24301Y45417
X23301Y45417
X22301Y45417
X21301Y45417
X20301Y45417
X19301Y45417
X18801Y46417
X19801Y46417
X20801Y46417
X21801Y46417
X22801Y46417
X23801Y46417
X24801Y46417
X25801Y46417
X26801Y46417
X27801Y46417
X28801Y46417
X29801Y46417
X30801Y46417
X31801Y46417
X32801Y46417
X33801Y46417
X34801Y46417
X35801Y46417
T04
X89383Y37667
X91351Y35698
X92336Y35698
X92336Y34535
X91351Y34535
X89383Y32567
X91351Y30598
X92336Y30598
X92336Y29435
X91351Y29435
X89383Y27467
X91351Y25498
X92336Y25498
X92336Y39635
X91351Y39635
T05
X89383Y39675
X89383Y38651
X91351Y37667
X89383Y36682
X89383Y35659
X89383Y34575
X89383Y33551
X91351Y32567
X89383Y31582
X89383Y30559
X89383Y29475
X89383Y28451
X91351Y27467
X89383Y26482
X89383Y25459
T06
X59551Y44917
X59551Y45917
T07
X37551Y45917
X37551Y44917
X15551Y44917
X15551Y45917
T08
X74501Y29867
X78701Y29867
X89051Y23427
X89051Y10307
M30
