G75*
G70*
%OFA0B0*%
%FSLAX24Y24*%
%IPPOS*%
%LPD*%
%AMOC8*
5,1,8,0,0,1.08239X$1,22.5*
%
%ADD10C,0.0100*%
%ADD11R,5.3050X0.3200*%
%ADD12C,0.0080*%
%ADD13C,0.1019*%
%ADD14C,0.0679*%
%ADD15R,0.0659X0.2609*%
%ADD16R,0.0619X0.0619*%
%ADD17C,0.0619*%
%ADD18C,0.2059*%
%ADD19C,0.0531*%
%ADD20C,0.0960*%
%ADD21OC8,0.0689*%
%ADD22C,0.0689*%
%ADD23C,0.0619*%
%ADD24C,0.1359*%
%ADD25C,0.0539*%
%ADD26OC8,0.0619*%
D10*
X027101Y018517D02*
X028651Y016967D01*
X031601Y019917D01*
X032851Y019917D01*
X032851Y018517D01*
X039301Y018517D01*
X040601Y019817D01*
X040501Y019817D01*
X039301Y018617D01*
X032951Y018617D01*
X032951Y020017D01*
X031601Y020017D01*
X028651Y017067D01*
X027101Y018617D01*
X018001Y018617D01*
X016751Y019867D01*
X016651Y019867D01*
X018001Y018517D01*
X027101Y018517D01*
X027146Y018472D02*
X027246Y018472D01*
X027245Y018373D02*
X027345Y018373D01*
X027343Y018275D02*
X027443Y018275D01*
X027442Y018176D02*
X027542Y018176D01*
X027540Y018078D02*
X027640Y018078D01*
X027639Y017979D02*
X027739Y017979D01*
X027737Y017881D02*
X027837Y017881D01*
X027836Y017782D02*
X027936Y017782D01*
X027934Y017684D02*
X028034Y017684D01*
X028033Y017585D02*
X028133Y017585D01*
X028131Y017487D02*
X028231Y017487D01*
X028230Y017388D02*
X028330Y017388D01*
X028328Y017290D02*
X028428Y017290D01*
X028427Y017191D02*
X028527Y017191D01*
X028525Y017093D02*
X028625Y017093D01*
X028677Y017093D02*
X028777Y017093D01*
X028776Y017191D02*
X028876Y017191D01*
X028874Y017290D02*
X028974Y017290D01*
X028973Y017388D02*
X029073Y017388D01*
X029071Y017487D02*
X029171Y017487D01*
X029170Y017585D02*
X029270Y017585D01*
X029268Y017684D02*
X029368Y017684D01*
X029367Y017782D02*
X029467Y017782D01*
X029465Y017881D02*
X029565Y017881D01*
X029564Y017979D02*
X029664Y017979D01*
X029662Y018078D02*
X029762Y018078D01*
X029761Y018176D02*
X029861Y018176D01*
X029859Y018275D02*
X029959Y018275D01*
X029958Y018373D02*
X030058Y018373D01*
X030056Y018472D02*
X030156Y018472D01*
X030155Y018570D02*
X030255Y018570D01*
X030253Y018669D02*
X030353Y018669D01*
X030352Y018767D02*
X030452Y018767D01*
X030450Y018866D02*
X030550Y018866D01*
X030549Y018964D02*
X030649Y018964D01*
X030647Y019063D02*
X030747Y019063D01*
X030746Y019161D02*
X030846Y019161D01*
X030844Y019260D02*
X030944Y019260D01*
X030943Y019358D02*
X031043Y019358D01*
X031041Y019457D02*
X031141Y019457D01*
X031140Y019555D02*
X031240Y019555D01*
X031238Y019654D02*
X031338Y019654D01*
X031337Y019752D02*
X031437Y019752D01*
X031435Y019851D02*
X031535Y019851D01*
X031534Y019949D02*
X032951Y019949D01*
X032951Y019851D02*
X032851Y019851D01*
X032851Y019752D02*
X032951Y019752D01*
X032951Y019654D02*
X032851Y019654D01*
X032851Y019555D02*
X032951Y019555D01*
X032951Y019457D02*
X032851Y019457D01*
X032851Y019358D02*
X032951Y019358D01*
X032951Y019260D02*
X032851Y019260D01*
X032851Y019161D02*
X032951Y019161D01*
X032951Y019063D02*
X032851Y019063D01*
X032851Y018964D02*
X032951Y018964D01*
X032951Y018866D02*
X032851Y018866D01*
X032851Y018767D02*
X032951Y018767D01*
X032951Y018669D02*
X032851Y018669D01*
X032851Y018570D02*
X039355Y018570D01*
X039353Y018669D02*
X039453Y018669D01*
X039452Y018767D02*
X039552Y018767D01*
X039550Y018866D02*
X039650Y018866D01*
X039649Y018964D02*
X039749Y018964D01*
X039747Y019063D02*
X039847Y019063D01*
X039846Y019161D02*
X039946Y019161D01*
X039944Y019260D02*
X040044Y019260D01*
X040043Y019358D02*
X040143Y019358D01*
X040141Y019457D02*
X040241Y019457D01*
X040240Y019555D02*
X040340Y019555D01*
X040338Y019654D02*
X040438Y019654D01*
X040437Y019752D02*
X040537Y019752D01*
X040551Y019867D02*
X039451Y020967D01*
X036901Y020967D01*
X036901Y021917D01*
X037501Y021317D01*
X039101Y021317D01*
X036851Y023567D01*
X035651Y023567D01*
X035651Y019867D01*
X040551Y019867D01*
X040469Y019949D02*
X035651Y019949D01*
X035651Y020048D02*
X040370Y020048D01*
X040272Y020146D02*
X035651Y020146D01*
X035651Y020245D02*
X040173Y020245D01*
X040075Y020343D02*
X035651Y020343D01*
X035651Y020442D02*
X039976Y020442D01*
X039878Y020540D02*
X035651Y020540D01*
X035651Y020639D02*
X039779Y020639D01*
X039681Y020737D02*
X035651Y020737D01*
X035651Y020836D02*
X039582Y020836D01*
X039484Y020934D02*
X035651Y020934D01*
X035651Y021033D02*
X036901Y021033D01*
X036901Y021131D02*
X035651Y021131D01*
X035651Y021230D02*
X036901Y021230D01*
X036901Y021328D02*
X035651Y021328D01*
X035651Y021427D02*
X036901Y021427D01*
X036901Y021525D02*
X035651Y021525D01*
X035651Y021624D02*
X036901Y021624D01*
X036901Y021722D02*
X035651Y021722D01*
X035651Y021821D02*
X036901Y021821D01*
X036997Y021821D02*
X038597Y021821D01*
X038499Y021919D02*
X035651Y021919D01*
X035651Y022018D02*
X038400Y022018D01*
X038302Y022116D02*
X035651Y022116D01*
X035651Y022215D02*
X038203Y022215D01*
X038105Y022313D02*
X035651Y022313D01*
X035651Y022412D02*
X038006Y022412D01*
X037908Y022510D02*
X035651Y022510D01*
X035651Y022609D02*
X037809Y022609D01*
X037711Y022707D02*
X035651Y022707D01*
X035651Y022806D02*
X037612Y022806D01*
X037514Y022904D02*
X035651Y022904D01*
X035651Y023003D02*
X037415Y023003D01*
X037317Y023101D02*
X035651Y023101D01*
X035651Y023200D02*
X037218Y023200D01*
X037120Y023298D02*
X035651Y023298D01*
X035651Y023397D02*
X037021Y023397D01*
X036923Y023495D02*
X035651Y023495D01*
X035301Y023495D02*
X033880Y023495D01*
X033951Y023567D02*
X035301Y023567D01*
X035301Y019867D01*
X033951Y019867D01*
X033951Y021917D01*
X033301Y021267D01*
X031651Y021267D01*
X033951Y023567D01*
X033781Y023397D02*
X035301Y023397D01*
X035301Y023298D02*
X033683Y023298D01*
X033584Y023200D02*
X035301Y023200D01*
X035301Y023101D02*
X033486Y023101D01*
X033387Y023003D02*
X035301Y023003D01*
X035301Y022904D02*
X033289Y022904D01*
X033190Y022806D02*
X035301Y022806D01*
X035301Y022707D02*
X033092Y022707D01*
X032993Y022609D02*
X035301Y022609D01*
X035301Y022510D02*
X032895Y022510D01*
X032796Y022412D02*
X035301Y022412D01*
X035301Y022313D02*
X032698Y022313D01*
X032599Y022215D02*
X035301Y022215D01*
X035301Y022116D02*
X032501Y022116D01*
X032402Y022018D02*
X035301Y022018D01*
X035301Y021919D02*
X032304Y021919D01*
X032205Y021821D02*
X033855Y021821D01*
X033951Y021821D02*
X035301Y021821D01*
X035301Y021722D02*
X033951Y021722D01*
X033951Y021624D02*
X035301Y021624D01*
X035301Y021525D02*
X033951Y021525D01*
X033951Y021427D02*
X035301Y021427D01*
X035301Y021328D02*
X033951Y021328D01*
X033951Y021230D02*
X035301Y021230D01*
X035301Y021131D02*
X033951Y021131D01*
X033951Y021033D02*
X035301Y021033D01*
X035301Y020934D02*
X033951Y020934D01*
X033951Y020836D02*
X035301Y020836D01*
X035301Y020737D02*
X033951Y020737D01*
X033951Y020639D02*
X035301Y020639D01*
X035301Y020540D02*
X033951Y020540D01*
X033951Y020442D02*
X035301Y020442D01*
X035301Y020343D02*
X033951Y020343D01*
X033951Y020245D02*
X035301Y020245D01*
X035301Y020146D02*
X033951Y020146D01*
X033951Y020048D02*
X035301Y020048D01*
X035301Y019949D02*
X033951Y019949D01*
X033363Y021328D02*
X031713Y021328D01*
X031811Y021427D02*
X033461Y021427D01*
X033560Y021525D02*
X031910Y021525D01*
X032008Y021624D02*
X033658Y021624D01*
X033757Y021722D02*
X032107Y021722D01*
X031837Y021919D02*
X030204Y021919D01*
X030105Y021821D02*
X031737Y021821D01*
X031638Y021722D02*
X030007Y021722D01*
X029908Y021624D02*
X031538Y021624D01*
X031439Y021525D02*
X029810Y021525D01*
X029711Y021427D02*
X031339Y021427D01*
X031240Y021328D02*
X029613Y021328D01*
X029514Y021230D02*
X031140Y021230D01*
X031041Y021131D02*
X029416Y021131D01*
X029317Y021033D02*
X030941Y021033D01*
X030841Y020934D02*
X029219Y020934D01*
X029120Y020836D02*
X030742Y020836D01*
X030642Y020737D02*
X029022Y020737D01*
X028923Y020639D02*
X030543Y020639D01*
X030443Y020540D02*
X028825Y020540D01*
X028726Y020442D02*
X030344Y020442D01*
X030244Y020343D02*
X027075Y020343D01*
X027173Y020245D02*
X030145Y020245D01*
X030045Y020146D02*
X027272Y020146D01*
X027370Y020048D02*
X029946Y020048D01*
X029846Y019949D02*
X027469Y019949D01*
X027567Y019851D02*
X029747Y019851D01*
X029647Y019752D02*
X027666Y019752D01*
X027764Y019654D02*
X029548Y019654D01*
X029448Y019555D02*
X027863Y019555D01*
X027961Y019457D02*
X029349Y019457D01*
X029249Y019358D02*
X028060Y019358D01*
X028158Y019260D02*
X029150Y019260D01*
X029050Y019161D02*
X028257Y019161D01*
X028355Y019063D02*
X028950Y019063D01*
X028851Y018964D02*
X028454Y018964D01*
X028552Y018866D02*
X028751Y018866D01*
X028651Y018767D02*
X028652Y018767D01*
X028651Y018767D02*
X033501Y023567D01*
X023851Y023567D01*
X025001Y022417D01*
X030701Y022417D01*
X028651Y020367D01*
X027751Y021267D01*
X028451Y021267D01*
X027651Y022067D01*
X025351Y022067D01*
X028651Y018767D01*
X027148Y018570D02*
X017948Y018570D01*
X017949Y018669D02*
X017849Y018669D01*
X017851Y018767D02*
X017751Y018767D01*
X017752Y018866D02*
X017652Y018866D01*
X017654Y018964D02*
X017554Y018964D01*
X017555Y019063D02*
X017455Y019063D01*
X017457Y019161D02*
X017357Y019161D01*
X017358Y019260D02*
X017258Y019260D01*
X017260Y019358D02*
X017160Y019358D01*
X017161Y019457D02*
X017061Y019457D01*
X017063Y019555D02*
X016963Y019555D01*
X016964Y019654D02*
X016864Y019654D01*
X016866Y019752D02*
X016766Y019752D01*
X016767Y019851D02*
X016667Y019851D01*
X016651Y019867D02*
X018551Y021767D01*
X020901Y021767D01*
X020551Y022117D01*
X018901Y022117D01*
X020351Y023567D01*
X021051Y023567D01*
X021601Y023017D01*
X021601Y021317D01*
X019751Y021317D01*
X019401Y020967D01*
X021951Y020967D01*
X021951Y023567D01*
X023051Y023567D01*
X023051Y020967D01*
X024051Y020967D01*
X023401Y021617D01*
X023401Y023567D01*
X027101Y019867D01*
X016651Y019867D01*
X016734Y019949D02*
X027019Y019949D01*
X026920Y020048D02*
X016832Y020048D01*
X016931Y020146D02*
X026822Y020146D01*
X026723Y020245D02*
X017029Y020245D01*
X017128Y020343D02*
X026625Y020343D01*
X026526Y020442D02*
X017226Y020442D01*
X017325Y020540D02*
X026428Y020540D01*
X026329Y020639D02*
X017423Y020639D01*
X017522Y020737D02*
X026231Y020737D01*
X026132Y020836D02*
X017620Y020836D01*
X017719Y020934D02*
X026034Y020934D01*
X025935Y021033D02*
X023985Y021033D01*
X023887Y021131D02*
X025837Y021131D01*
X025738Y021230D02*
X023788Y021230D01*
X023690Y021328D02*
X025640Y021328D01*
X025541Y021427D02*
X023591Y021427D01*
X023493Y021525D02*
X025443Y021525D01*
X025344Y021624D02*
X023401Y021624D01*
X023401Y021722D02*
X025246Y021722D01*
X025147Y021821D02*
X023401Y021821D01*
X023401Y021919D02*
X025049Y021919D01*
X024950Y022018D02*
X023401Y022018D01*
X023401Y022116D02*
X024852Y022116D01*
X024753Y022215D02*
X023401Y022215D01*
X023401Y022313D02*
X024655Y022313D01*
X024556Y022412D02*
X023401Y022412D01*
X023401Y022510D02*
X024458Y022510D01*
X024359Y022609D02*
X023401Y022609D01*
X023401Y022707D02*
X024261Y022707D01*
X024162Y022806D02*
X023401Y022806D01*
X023401Y022904D02*
X024064Y022904D01*
X023965Y023003D02*
X023401Y023003D01*
X023401Y023101D02*
X023867Y023101D01*
X023768Y023200D02*
X023401Y023200D01*
X023401Y023298D02*
X023670Y023298D01*
X023571Y023397D02*
X023401Y023397D01*
X023401Y023495D02*
X023473Y023495D01*
X023051Y023495D02*
X021951Y023495D01*
X021951Y023397D02*
X023051Y023397D01*
X023051Y023298D02*
X021951Y023298D01*
X021951Y023200D02*
X023051Y023200D01*
X023051Y023101D02*
X021951Y023101D01*
X021951Y023003D02*
X023051Y023003D01*
X023051Y022904D02*
X021951Y022904D01*
X021951Y022806D02*
X023051Y022806D01*
X023051Y022707D02*
X021951Y022707D01*
X021951Y022609D02*
X023051Y022609D01*
X023051Y022510D02*
X021951Y022510D01*
X021951Y022412D02*
X023051Y022412D01*
X023051Y022313D02*
X021951Y022313D01*
X021951Y022215D02*
X023051Y022215D01*
X023051Y022116D02*
X021951Y022116D01*
X021951Y022018D02*
X023051Y022018D01*
X023051Y021919D02*
X021951Y021919D01*
X021951Y021821D02*
X023051Y021821D01*
X023051Y021722D02*
X021951Y021722D01*
X021951Y021624D02*
X023051Y021624D01*
X023051Y021525D02*
X021951Y021525D01*
X021951Y021427D02*
X023051Y021427D01*
X023051Y021328D02*
X021951Y021328D01*
X021951Y021230D02*
X023051Y021230D01*
X023051Y021131D02*
X021951Y021131D01*
X021951Y021033D02*
X023051Y021033D01*
X021601Y021328D02*
X018113Y021328D01*
X018014Y021230D02*
X019664Y021230D01*
X019566Y021131D02*
X017916Y021131D01*
X017817Y021033D02*
X019467Y021033D01*
X018310Y021525D02*
X021601Y021525D01*
X021601Y021427D02*
X018211Y021427D01*
X018408Y021624D02*
X021601Y021624D01*
X021601Y021722D02*
X018507Y021722D01*
X018999Y022215D02*
X021601Y022215D01*
X021601Y022313D02*
X019098Y022313D01*
X019196Y022412D02*
X021601Y022412D01*
X021601Y022510D02*
X019295Y022510D01*
X019393Y022609D02*
X021601Y022609D01*
X021601Y022707D02*
X019492Y022707D01*
X019590Y022806D02*
X021601Y022806D01*
X021601Y022904D02*
X019689Y022904D01*
X019787Y023003D02*
X021601Y023003D01*
X021517Y023101D02*
X019886Y023101D01*
X019984Y023200D02*
X021418Y023200D01*
X021320Y023298D02*
X020083Y023298D01*
X020181Y023397D02*
X021221Y023397D01*
X021123Y023495D02*
X020280Y023495D01*
X020552Y022116D02*
X021601Y022116D01*
X021601Y022018D02*
X020650Y022018D01*
X020749Y021919D02*
X021601Y021919D01*
X021601Y021821D02*
X020847Y021821D01*
X024021Y023397D02*
X033330Y023397D01*
X033429Y023495D02*
X023923Y023495D01*
X024120Y023298D02*
X033230Y023298D01*
X033131Y023200D02*
X024218Y023200D01*
X024317Y023101D02*
X033031Y023101D01*
X032932Y023003D02*
X024415Y023003D01*
X024514Y022904D02*
X032832Y022904D01*
X032732Y022806D02*
X024612Y022806D01*
X024711Y022707D02*
X032633Y022707D01*
X032533Y022609D02*
X024809Y022609D01*
X024908Y022510D02*
X032434Y022510D01*
X032334Y022412D02*
X030696Y022412D01*
X030598Y022313D02*
X032235Y022313D01*
X032135Y022215D02*
X030499Y022215D01*
X030401Y022116D02*
X032036Y022116D01*
X031936Y022018D02*
X030302Y022018D01*
X028390Y021328D02*
X026090Y021328D01*
X026188Y021230D02*
X027788Y021230D01*
X027887Y021131D02*
X026287Y021131D01*
X026385Y021033D02*
X027985Y021033D01*
X028084Y020934D02*
X026484Y020934D01*
X026582Y020836D02*
X028182Y020836D01*
X028281Y020737D02*
X026681Y020737D01*
X026779Y020639D02*
X028379Y020639D01*
X028478Y020540D02*
X026878Y020540D01*
X026976Y020442D02*
X028576Y020442D01*
X028291Y021427D02*
X025991Y021427D01*
X025893Y021525D02*
X028193Y021525D01*
X028094Y021624D02*
X025794Y021624D01*
X025696Y021722D02*
X027996Y021722D01*
X027897Y021821D02*
X025597Y021821D01*
X025499Y021919D02*
X027799Y021919D01*
X027700Y022018D02*
X025400Y022018D01*
X028624Y016994D02*
X028679Y016994D01*
X037293Y021525D02*
X038893Y021525D01*
X038991Y021427D02*
X037391Y021427D01*
X037490Y021328D02*
X039090Y021328D01*
X038794Y021624D02*
X037194Y021624D01*
X037096Y021722D02*
X038696Y021722D01*
D11*
X057026Y009617D03*
D12*
X019517Y012507D02*
X019304Y012507D01*
X019411Y012507D02*
X019411Y012827D01*
X019517Y012720D01*
X019672Y012667D02*
X019886Y012667D01*
X019726Y012827D01*
X019726Y012507D01*
X020040Y012560D02*
X020094Y012507D01*
X020201Y012507D01*
X020254Y012560D01*
X020254Y012667D02*
X020147Y012720D01*
X020094Y012720D01*
X020040Y012667D01*
X020040Y012560D01*
X020254Y012667D02*
X020254Y012827D01*
X020040Y012827D01*
X020315Y013000D02*
X020209Y013107D01*
X020262Y013107D01*
X020262Y013160D01*
X020209Y013160D01*
X020209Y013107D01*
X020470Y013107D02*
X020630Y013107D01*
X020684Y013160D01*
X020684Y013267D01*
X020630Y013320D01*
X020470Y013320D01*
X020415Y013707D02*
X020469Y013760D01*
X020255Y013974D01*
X020255Y013760D01*
X020309Y013707D01*
X020415Y013707D01*
X020469Y013760D02*
X020469Y013974D01*
X020415Y014027D01*
X020309Y014027D01*
X020255Y013974D01*
X020047Y013760D02*
X020047Y013707D01*
X019994Y013707D01*
X019994Y013760D01*
X020047Y013760D01*
X019994Y013707D02*
X020101Y013600D01*
X019701Y013427D02*
X019488Y013427D01*
X019595Y013427D02*
X019595Y013107D01*
X019333Y013160D02*
X019280Y013107D01*
X019173Y013107D01*
X019120Y013160D01*
X019120Y013267D01*
X019173Y013320D01*
X019280Y013320D01*
X019333Y013267D01*
X019333Y013160D01*
X018965Y013160D02*
X018911Y013213D01*
X018751Y013213D01*
X018751Y013267D02*
X018751Y013107D01*
X018911Y013107D01*
X018965Y013160D01*
X018911Y013320D02*
X018805Y013320D01*
X018751Y013267D01*
X018597Y013267D02*
X018543Y013320D01*
X018383Y013320D01*
X018436Y013213D02*
X018543Y013213D01*
X018597Y013267D01*
X018597Y013107D02*
X018436Y013107D01*
X018383Y013160D01*
X018436Y013213D01*
X018228Y013320D02*
X018121Y013320D01*
X018175Y013374D02*
X018175Y013160D01*
X018121Y013107D01*
X017983Y013053D02*
X017769Y013053D01*
X017614Y013107D02*
X017614Y013320D01*
X017508Y013320D02*
X017454Y013320D01*
X017508Y013320D02*
X017614Y013213D01*
X017254Y013160D02*
X017254Y013107D01*
X017201Y013107D01*
X017201Y013160D01*
X017254Y013160D01*
X017201Y013107D02*
X017307Y013000D01*
X016694Y013320D02*
X016587Y013107D01*
X016480Y013320D01*
X016325Y013267D02*
X016272Y013320D01*
X016165Y013320D01*
X016112Y013267D01*
X016112Y013213D01*
X016325Y013213D01*
X016325Y013160D02*
X016325Y013267D01*
X016325Y013160D02*
X016272Y013107D01*
X016165Y013107D01*
X015904Y013160D02*
X015850Y013107D01*
X015904Y013160D02*
X015904Y013374D01*
X015957Y013320D02*
X015850Y013320D01*
X015711Y013320D02*
X015498Y013320D01*
X015711Y013107D01*
X015498Y013107D01*
X015343Y013000D02*
X015236Y013107D01*
X015290Y013107D01*
X015290Y013160D01*
X015236Y013160D01*
X015236Y013107D01*
X015190Y013600D02*
X015083Y013707D01*
X015136Y013707D01*
X015136Y013760D01*
X015083Y013760D01*
X015083Y013707D01*
X015344Y013707D02*
X015505Y013707D01*
X015558Y013760D01*
X015505Y013813D01*
X015344Y013813D01*
X015344Y013867D02*
X015344Y013707D01*
X015344Y013867D02*
X015398Y013920D01*
X015505Y013920D01*
X015713Y013920D02*
X015713Y013653D01*
X015766Y013600D01*
X015820Y013600D01*
X015873Y013707D02*
X015713Y013707D01*
X015873Y013707D02*
X015926Y013760D01*
X015926Y013920D01*
X016081Y013867D02*
X016081Y013707D01*
X016241Y013707D01*
X016295Y013760D01*
X016241Y013813D01*
X016081Y013813D01*
X016081Y013867D02*
X016134Y013920D01*
X016241Y013920D01*
X016441Y013920D02*
X016602Y013813D01*
X016441Y013707D01*
X016602Y013707D02*
X016602Y014027D01*
X016756Y013920D02*
X016916Y013920D01*
X016970Y013867D01*
X016916Y013813D01*
X016810Y013813D01*
X016756Y013760D01*
X016810Y013707D01*
X016970Y013707D01*
X017117Y013920D02*
X017170Y013920D01*
X017277Y013813D01*
X017277Y013707D02*
X017277Y013920D01*
X017432Y013867D02*
X017432Y013813D01*
X017645Y013813D01*
X017645Y013760D02*
X017645Y013867D01*
X017592Y013920D01*
X017485Y013920D01*
X017432Y013867D01*
X017485Y013707D02*
X017592Y013707D01*
X017645Y013760D01*
X017800Y013760D02*
X017853Y013707D01*
X018013Y013707D01*
X018013Y013600D02*
X018013Y013920D01*
X017853Y013920D01*
X017800Y013867D01*
X017800Y013760D01*
X018168Y013707D02*
X018328Y013707D01*
X018382Y013760D01*
X018382Y013920D01*
X018537Y013867D02*
X018537Y013707D01*
X018697Y013707D01*
X018750Y013760D01*
X018697Y013813D01*
X018537Y013813D01*
X018537Y013867D02*
X018590Y013920D01*
X018697Y013920D01*
X018905Y013867D02*
X018905Y013707D01*
X018905Y013867D02*
X018958Y013920D01*
X019118Y013920D01*
X019118Y013707D01*
X019273Y013760D02*
X019327Y013707D01*
X019433Y013707D01*
X019487Y013760D01*
X019433Y013867D02*
X019327Y013867D01*
X019273Y013813D01*
X019273Y013760D01*
X019433Y013867D02*
X019487Y013920D01*
X019487Y013974D01*
X019433Y014027D01*
X019327Y014027D01*
X019273Y013974D01*
X019425Y014307D02*
X019425Y014360D01*
X019212Y014574D01*
X019212Y014627D01*
X019425Y014627D01*
X019580Y014467D02*
X019580Y014413D01*
X019794Y014413D01*
X019794Y014360D02*
X019794Y014467D01*
X019740Y014520D01*
X019633Y014520D01*
X019580Y014467D01*
X019633Y014307D02*
X019740Y014307D01*
X019794Y014360D01*
X019948Y014307D02*
X020162Y014307D01*
X019948Y014520D01*
X020162Y014520D01*
X020301Y014520D02*
X020407Y014520D01*
X020354Y014574D02*
X020354Y014360D01*
X020301Y014307D01*
X020562Y014307D02*
X020722Y014307D01*
X020776Y014360D01*
X020722Y014413D01*
X020562Y014413D01*
X020562Y014467D02*
X020562Y014307D01*
X020562Y014467D02*
X020616Y014520D01*
X020722Y014520D01*
X020931Y014467D02*
X020931Y014307D01*
X021037Y014307D02*
X021037Y014467D01*
X020984Y014520D01*
X020931Y014467D01*
X021037Y014467D02*
X021091Y014520D01*
X021144Y014520D01*
X021144Y014307D01*
X021205Y013920D02*
X021099Y013707D01*
X020992Y013920D01*
X020837Y013920D02*
X020837Y013974D01*
X020784Y014027D01*
X020677Y014027D01*
X020624Y013974D01*
X020624Y013920D01*
X020677Y013867D01*
X020784Y013867D01*
X020837Y013920D01*
X020784Y013867D02*
X020837Y013813D01*
X020837Y013760D01*
X020784Y013707D01*
X020677Y013707D01*
X020624Y013760D01*
X020624Y013813D01*
X020677Y013867D01*
X020876Y013480D02*
X020876Y013427D01*
X020876Y013320D02*
X020876Y013107D01*
X020929Y013107D02*
X020822Y013107D01*
X020876Y013320D02*
X020929Y013320D01*
X021068Y013320D02*
X021175Y013320D01*
X021121Y013374D02*
X021121Y013160D01*
X021068Y013107D01*
X021330Y013160D02*
X021330Y013267D01*
X021383Y013320D01*
X021543Y013320D01*
X021543Y013000D01*
X021543Y013107D02*
X021383Y013107D01*
X021330Y013160D01*
X021698Y013160D02*
X021698Y013267D01*
X021751Y013320D01*
X021858Y013320D01*
X021911Y013267D01*
X021911Y013160D01*
X021858Y013107D01*
X021751Y013107D01*
X021698Y013160D01*
X022066Y013107D02*
X022066Y013267D01*
X022120Y013320D01*
X022280Y013320D01*
X022280Y013107D01*
X022434Y013107D02*
X022595Y013107D01*
X022648Y013160D01*
X022648Y013320D01*
X022803Y013374D02*
X022856Y013427D01*
X022963Y013427D01*
X023016Y013374D01*
X023016Y013320D01*
X022963Y013267D01*
X022856Y013267D01*
X022803Y013213D01*
X022803Y013160D01*
X022856Y013107D01*
X022963Y013107D01*
X023016Y013160D01*
X023147Y012774D02*
X023147Y012560D01*
X023094Y012507D01*
X022955Y012560D02*
X022902Y012613D01*
X022741Y012613D01*
X022741Y012667D02*
X022741Y012507D01*
X022902Y012507D01*
X022955Y012560D01*
X022902Y012720D02*
X022795Y012720D01*
X022741Y012667D01*
X022587Y012720D02*
X022426Y012720D01*
X022373Y012667D01*
X022373Y012560D01*
X022426Y012507D01*
X022587Y012507D01*
X022587Y012827D01*
X022541Y013000D02*
X022488Y013000D01*
X022434Y013053D01*
X022434Y013320D01*
X022556Y013600D02*
X022449Y013707D01*
X022503Y013707D01*
X022503Y013760D01*
X022449Y013760D01*
X022449Y013707D01*
X022711Y013813D02*
X022924Y013813D01*
X022924Y013760D02*
X022924Y013867D01*
X022871Y013920D01*
X022764Y013920D01*
X022711Y013867D01*
X022711Y013813D01*
X022764Y013707D02*
X022871Y013707D01*
X022924Y013760D01*
X023079Y013707D02*
X023079Y013920D01*
X023079Y013707D02*
X023239Y013707D01*
X023293Y013760D01*
X023293Y013920D01*
X023447Y013920D02*
X023608Y013920D01*
X023661Y013867D01*
X023661Y013760D01*
X023608Y013707D01*
X023447Y013707D01*
X023447Y013600D02*
X023447Y013920D01*
X023853Y013920D02*
X023853Y013707D01*
X023906Y013707D02*
X023800Y013707D01*
X023853Y013920D02*
X023906Y013920D01*
X023853Y014027D02*
X023853Y014080D01*
X023906Y014200D02*
X023800Y014307D01*
X023853Y014307D01*
X023853Y014360D01*
X023800Y014360D01*
X023800Y014307D01*
X024045Y014307D02*
X024152Y014307D01*
X024099Y014307D02*
X024099Y014520D01*
X024152Y014520D01*
X024099Y014627D02*
X024099Y014680D01*
X024061Y014907D02*
X024061Y015120D01*
X023906Y015120D02*
X023746Y015120D01*
X023693Y015067D01*
X023693Y014960D01*
X023746Y014907D01*
X023906Y014907D01*
X023906Y015227D01*
X023998Y015507D02*
X023998Y015720D01*
X023892Y015720D02*
X023838Y015720D01*
X023892Y015720D02*
X023998Y015613D01*
X024153Y015560D02*
X024207Y015507D01*
X024313Y015507D01*
X024367Y015560D01*
X024367Y015774D01*
X024313Y015827D01*
X024207Y015827D01*
X024153Y015774D01*
X024091Y016107D02*
X024091Y016320D01*
X023984Y016427D01*
X023877Y016320D01*
X023877Y016107D01*
X023722Y016107D02*
X023616Y016107D01*
X023669Y016107D02*
X023669Y016427D01*
X023722Y016427D01*
X023877Y016267D02*
X024091Y016267D01*
X024598Y016160D02*
X024598Y016107D01*
X024651Y016107D01*
X024651Y016160D01*
X024598Y016160D01*
X024598Y016107D02*
X024704Y016000D01*
X024859Y016160D02*
X024913Y016107D01*
X025073Y016107D01*
X025019Y016213D02*
X025073Y016267D01*
X025019Y016320D01*
X024859Y016320D01*
X024913Y016213D02*
X025019Y016213D01*
X024913Y016213D02*
X024859Y016160D01*
X025220Y016320D02*
X025273Y016320D01*
X025380Y016213D01*
X025380Y016107D02*
X025380Y016320D01*
X025534Y016267D02*
X025534Y016107D01*
X025534Y016267D02*
X025588Y016320D01*
X025748Y016320D01*
X025748Y016107D01*
X025903Y016107D02*
X026063Y016107D01*
X026116Y016160D01*
X026063Y016213D01*
X025903Y016213D01*
X025903Y016267D02*
X025903Y016107D01*
X025903Y016267D02*
X025956Y016320D01*
X026063Y016320D01*
X026271Y016320D02*
X026485Y016107D01*
X026639Y016213D02*
X026853Y016213D01*
X026853Y016160D02*
X026853Y016267D01*
X026800Y016320D01*
X026693Y016320D01*
X026639Y016267D01*
X026639Y016213D01*
X026693Y016107D02*
X026800Y016107D01*
X026853Y016160D01*
X026992Y016107D02*
X027098Y016107D01*
X027045Y016107D02*
X027045Y016427D01*
X027098Y016427D01*
X027253Y016267D02*
X027253Y016107D01*
X027413Y016107D01*
X027467Y016160D01*
X027413Y016213D01*
X027253Y016213D01*
X027253Y016267D02*
X027307Y016320D01*
X027413Y016320D01*
X027383Y015827D02*
X027436Y015774D01*
X027436Y015560D01*
X027383Y015507D01*
X027276Y015507D01*
X027223Y015560D01*
X027068Y015507D02*
X027068Y015827D01*
X027014Y015720D02*
X026908Y015720D01*
X026854Y015667D01*
X026854Y015507D01*
X026699Y015560D02*
X026646Y015613D01*
X026486Y015613D01*
X026486Y015667D02*
X026486Y015507D01*
X026646Y015507D01*
X026699Y015560D01*
X026646Y015720D02*
X026539Y015720D01*
X026486Y015667D01*
X026331Y015720D02*
X026278Y015720D01*
X026278Y015507D01*
X026331Y015507D02*
X026224Y015507D01*
X026086Y015507D02*
X026086Y015720D01*
X025925Y015720D01*
X025872Y015667D01*
X025872Y015507D01*
X025717Y015667D02*
X025504Y015667D01*
X025349Y015774D02*
X025296Y015827D01*
X025189Y015827D01*
X025135Y015774D01*
X025135Y015560D01*
X025189Y015507D01*
X025296Y015507D01*
X025349Y015560D01*
X025349Y015774D01*
X025242Y015613D02*
X025135Y015507D01*
X024981Y015400D02*
X024874Y015507D01*
X024927Y015507D01*
X024927Y015560D01*
X024874Y015560D01*
X024874Y015507D01*
X024643Y015227D02*
X024483Y015227D01*
X024430Y015174D01*
X024430Y014960D01*
X024483Y014907D01*
X024643Y014907D01*
X024643Y015227D01*
X024275Y015120D02*
X024275Y014960D01*
X024221Y014907D01*
X024061Y014907D01*
X024360Y014520D02*
X024307Y014467D01*
X024307Y014307D01*
X024467Y014307D01*
X024520Y014360D01*
X024467Y014413D01*
X024307Y014413D01*
X024360Y014520D02*
X024467Y014520D01*
X024675Y014520D02*
X024835Y014520D01*
X024889Y014467D01*
X024889Y014360D01*
X024835Y014307D01*
X024675Y014307D01*
X024675Y014627D01*
X025043Y014467D02*
X025097Y014520D01*
X025204Y014520D01*
X025257Y014467D01*
X025257Y014360D01*
X025204Y014307D01*
X025097Y014307D01*
X025043Y014360D01*
X025043Y014467D01*
X025257Y014800D02*
X025150Y014907D01*
X025204Y014907D01*
X025204Y014960D01*
X025150Y014960D01*
X025150Y014907D01*
X025412Y015013D02*
X025625Y015013D01*
X025625Y014960D02*
X025625Y015067D01*
X025572Y015120D01*
X025465Y015120D01*
X025412Y015067D01*
X025412Y015013D01*
X025465Y014907D02*
X025572Y014907D01*
X025625Y014960D01*
X025772Y015120D02*
X025825Y015120D01*
X025932Y015013D01*
X025932Y014907D02*
X025932Y015120D01*
X026087Y015067D02*
X026087Y014907D01*
X026247Y014907D01*
X026300Y014960D01*
X026247Y015013D01*
X026087Y015013D01*
X026087Y015067D02*
X026140Y015120D01*
X026247Y015120D01*
X026455Y015120D02*
X026455Y014960D01*
X026509Y014907D01*
X026562Y014960D01*
X026615Y014907D01*
X026669Y014960D01*
X026669Y015120D01*
X026824Y015067D02*
X026824Y014907D01*
X026824Y015067D02*
X026877Y015120D01*
X027037Y015120D01*
X027037Y014907D01*
X027192Y015013D02*
X027405Y015013D01*
X027405Y014960D02*
X027405Y015067D01*
X027352Y015120D01*
X027245Y015120D01*
X027192Y015067D01*
X027192Y015013D01*
X027245Y014907D02*
X027352Y014907D01*
X027405Y014960D01*
X027560Y014960D02*
X027614Y015013D01*
X027720Y015013D01*
X027774Y015067D01*
X027720Y015120D01*
X027560Y015120D01*
X027560Y014960D02*
X027614Y014907D01*
X027774Y014907D01*
X027929Y014960D02*
X027929Y015067D01*
X027982Y015120D01*
X028089Y015120D01*
X028142Y015067D01*
X028142Y014960D01*
X028089Y014907D01*
X027982Y014907D01*
X027929Y014960D01*
X027958Y014627D02*
X027851Y014520D01*
X027744Y014627D01*
X027744Y014307D01*
X027590Y014307D02*
X027429Y014307D01*
X027376Y014360D01*
X027376Y014413D01*
X027429Y014467D01*
X027590Y014467D01*
X027590Y014627D02*
X027429Y014627D01*
X027376Y014574D01*
X027376Y014520D01*
X027429Y014467D01*
X027221Y014520D02*
X027168Y014520D01*
X027168Y014307D01*
X027221Y014307D02*
X027114Y014307D01*
X026976Y014360D02*
X026922Y014307D01*
X026762Y014307D01*
X026762Y014253D02*
X026762Y014520D01*
X026922Y014520D01*
X026976Y014467D01*
X026976Y014360D01*
X026869Y014200D02*
X026816Y014200D01*
X026762Y014253D01*
X026607Y014307D02*
X026447Y014307D01*
X026394Y014360D01*
X026394Y014413D01*
X026447Y014467D01*
X026607Y014467D01*
X026447Y014467D02*
X026394Y014520D01*
X026394Y014574D01*
X026447Y014627D01*
X026607Y014627D01*
X026607Y014307D01*
X026239Y014200D02*
X026132Y014307D01*
X026186Y014307D01*
X026186Y014360D01*
X026132Y014360D01*
X026132Y014307D01*
X026186Y013974D02*
X026186Y013760D01*
X026132Y013707D01*
X025940Y013707D02*
X025940Y013974D01*
X025887Y014027D01*
X025887Y013867D02*
X025994Y013867D01*
X026132Y013920D02*
X026239Y013920D01*
X026394Y013867D02*
X026394Y013707D01*
X026554Y013707D01*
X026607Y013760D01*
X026554Y013813D01*
X026394Y013813D01*
X026394Y013867D02*
X026447Y013920D01*
X026554Y013920D01*
X026754Y013920D02*
X026808Y013920D01*
X026914Y013813D01*
X026914Y013707D02*
X026914Y013920D01*
X027421Y013760D02*
X027475Y013760D01*
X027475Y013707D01*
X027421Y013707D01*
X027421Y013760D01*
X027421Y013707D02*
X027528Y013600D01*
X027683Y013707D02*
X027683Y014027D01*
X027896Y014027D02*
X027683Y013707D01*
X027896Y013707D02*
X027896Y014027D01*
X028089Y014027D02*
X028089Y014080D01*
X028089Y013920D02*
X028089Y013707D01*
X028142Y013707D02*
X028035Y013707D01*
X028089Y013920D02*
X028142Y013920D01*
X028297Y013920D02*
X028350Y013867D01*
X028510Y013867D01*
X028350Y013867D02*
X028297Y013813D01*
X028297Y013760D01*
X028350Y013707D01*
X028510Y013707D01*
X028510Y014027D01*
X028350Y014027D01*
X028297Y013974D01*
X028297Y013920D01*
X028665Y013974D02*
X028665Y013760D01*
X028719Y013707D01*
X028825Y013707D01*
X028879Y013760D01*
X028879Y013974D01*
X028825Y014027D01*
X028719Y014027D01*
X028665Y013974D01*
X028772Y013813D02*
X028665Y013707D01*
X028672Y013320D02*
X028512Y013320D01*
X028565Y013213D02*
X028672Y013213D01*
X028725Y013267D01*
X028672Y013320D01*
X028565Y013213D02*
X028512Y013160D01*
X028565Y013107D01*
X028725Y013107D01*
X028304Y013160D02*
X028304Y013374D01*
X028357Y013320D02*
X028250Y013320D01*
X028111Y013320D02*
X028111Y013107D01*
X028111Y013213D02*
X028005Y013320D01*
X027951Y013320D01*
X027804Y013320D02*
X027804Y013160D01*
X027751Y013107D01*
X027591Y013107D01*
X027591Y013320D01*
X027436Y013320D02*
X027436Y013160D01*
X027383Y013107D01*
X027223Y013107D01*
X027223Y013320D01*
X027068Y013320D02*
X027068Y013160D01*
X027014Y013107D01*
X026854Y013107D01*
X026854Y013320D01*
X026699Y013320D02*
X026539Y013320D01*
X026486Y013267D01*
X026486Y013107D01*
X026331Y013107D02*
X026118Y013320D01*
X026331Y013320D01*
X026331Y013107D02*
X026118Y013107D01*
X025963Y013000D02*
X025856Y013107D01*
X025909Y013107D01*
X025909Y013160D01*
X025856Y013160D01*
X025856Y013107D01*
X025349Y013107D02*
X025189Y013107D01*
X025135Y013160D01*
X025189Y013213D01*
X025296Y013213D01*
X025349Y013267D01*
X025296Y013320D01*
X025135Y013320D01*
X024981Y013320D02*
X024874Y013320D01*
X024927Y013374D02*
X024927Y013160D01*
X024874Y013107D01*
X024735Y013160D02*
X024682Y013107D01*
X024522Y013107D01*
X024522Y013053D02*
X024575Y013000D01*
X024628Y013000D01*
X024522Y013053D02*
X024522Y013320D01*
X024367Y013320D02*
X024207Y013320D01*
X024153Y013267D01*
X024153Y013107D01*
X023999Y013107D02*
X023785Y013320D01*
X023785Y013107D02*
X023999Y013320D01*
X024367Y013320D02*
X024367Y013107D01*
X024460Y012827D02*
X024460Y012507D01*
X024567Y012613D01*
X024674Y012507D01*
X024674Y012827D01*
X024735Y013160D02*
X024735Y013320D01*
X024827Y013600D02*
X024720Y013707D01*
X024774Y013707D01*
X024774Y013760D01*
X024720Y013760D01*
X024720Y013707D01*
X024974Y013707D02*
X025134Y013813D01*
X024974Y013920D01*
X025134Y014027D02*
X025134Y013707D01*
X025289Y013707D02*
X025289Y013867D01*
X025342Y013920D01*
X025502Y013920D01*
X025502Y013707D01*
X025641Y013707D02*
X025748Y013707D01*
X025695Y013707D02*
X025695Y013920D01*
X025748Y013920D01*
X025695Y014027D02*
X025695Y014080D01*
X025625Y014307D02*
X025625Y014627D01*
X025572Y014467D02*
X025412Y014307D01*
X025625Y014413D02*
X025412Y014627D01*
X027168Y014680D02*
X027168Y014627D01*
X027590Y014627D02*
X027590Y014307D01*
X027958Y014307D02*
X027958Y014627D01*
X028113Y014574D02*
X028166Y014627D01*
X028273Y014627D01*
X028326Y014574D01*
X028326Y014360D01*
X028273Y014307D01*
X028166Y014307D01*
X028113Y014360D01*
X028113Y014467D01*
X028219Y014467D01*
X028350Y014907D02*
X028297Y014960D01*
X028297Y015174D01*
X028350Y015227D01*
X028510Y015227D01*
X028510Y014907D01*
X028350Y014907D01*
X027383Y015827D02*
X027276Y015827D01*
X027223Y015774D01*
X027068Y015667D02*
X027014Y015720D01*
X026278Y015827D02*
X026278Y015880D01*
X026271Y016107D02*
X026485Y016320D01*
X023692Y015560D02*
X023638Y015613D01*
X023478Y015613D01*
X023478Y015667D02*
X023478Y015507D01*
X023638Y015507D01*
X023692Y015560D01*
X023638Y015720D02*
X023531Y015720D01*
X023478Y015667D01*
X023323Y015720D02*
X023110Y015720D01*
X023323Y015507D01*
X023110Y015507D01*
X022955Y015560D02*
X022902Y015507D01*
X022741Y015507D01*
X022741Y015453D02*
X022795Y015400D01*
X022848Y015400D01*
X022741Y015453D02*
X022741Y015720D01*
X022587Y015667D02*
X022533Y015720D01*
X022373Y015720D01*
X022426Y015613D02*
X022533Y015613D01*
X022587Y015667D01*
X022587Y015507D02*
X022426Y015507D01*
X022373Y015560D01*
X022426Y015613D01*
X022218Y015667D02*
X022165Y015720D01*
X022058Y015720D01*
X022005Y015667D01*
X022005Y015507D01*
X021850Y015560D02*
X021850Y015667D01*
X021797Y015720D01*
X021690Y015720D01*
X021636Y015667D01*
X021636Y015613D01*
X021850Y015613D01*
X021850Y015560D02*
X021797Y015507D01*
X021690Y015507D01*
X021482Y015507D02*
X021482Y015720D01*
X021482Y015613D02*
X021375Y015720D01*
X021322Y015720D01*
X021175Y015720D02*
X021121Y015720D01*
X021121Y015507D01*
X021068Y015507D02*
X021175Y015507D01*
X021115Y015227D02*
X021328Y015227D01*
X021328Y014907D01*
X021328Y015067D02*
X021221Y015067D01*
X020960Y015120D02*
X020907Y015120D01*
X020907Y014907D01*
X020960Y014907D02*
X020853Y014907D01*
X020714Y014907D02*
X020714Y015120D01*
X020608Y015120D02*
X020554Y015120D01*
X020608Y015120D02*
X020714Y015013D01*
X020907Y015227D02*
X020907Y015280D01*
X020876Y015507D02*
X020876Y015774D01*
X020822Y015827D01*
X020822Y015667D02*
X020929Y015667D01*
X020684Y015667D02*
X020577Y015667D01*
X020630Y015774D02*
X020577Y015827D01*
X020630Y015774D02*
X020630Y015507D01*
X020438Y015400D02*
X020331Y015507D01*
X020385Y015507D01*
X020385Y015560D01*
X020331Y015560D01*
X020331Y015507D01*
X020354Y015120D02*
X020247Y015120D01*
X020194Y015067D01*
X020194Y015013D01*
X020407Y015013D01*
X020407Y014960D02*
X020407Y015067D01*
X020354Y015120D01*
X020407Y014960D02*
X020354Y014907D01*
X020247Y014907D01*
X020039Y015067D02*
X019826Y015067D01*
X019671Y015013D02*
X019511Y015013D01*
X019457Y015067D01*
X019457Y015174D01*
X019511Y015227D01*
X019671Y015227D01*
X019671Y014907D01*
X019302Y014907D02*
X019302Y015227D01*
X019249Y015120D02*
X019142Y015120D01*
X019089Y015067D01*
X019089Y014907D01*
X018934Y014960D02*
X018881Y014907D01*
X018774Y014907D01*
X018721Y014960D01*
X018721Y015067D01*
X018774Y015120D01*
X018881Y015120D01*
X018934Y015067D01*
X018934Y014960D01*
X018897Y014627D02*
X019004Y014627D01*
X019057Y014574D01*
X019057Y014520D01*
X019004Y014467D01*
X018843Y014467D01*
X018843Y014574D02*
X018897Y014627D01*
X018843Y014574D02*
X018843Y014360D01*
X018897Y014307D01*
X019004Y014307D01*
X019057Y014360D01*
X018689Y014200D02*
X018582Y014307D01*
X018635Y014307D01*
X018635Y014360D01*
X018582Y014360D01*
X018582Y014307D01*
X018075Y014307D02*
X018075Y014520D01*
X017915Y014520D01*
X017861Y014467D01*
X017861Y014307D01*
X017706Y014307D02*
X017600Y014307D01*
X017653Y014307D02*
X017653Y014520D01*
X017706Y014520D01*
X017653Y014627D02*
X017653Y014680D01*
X017584Y014907D02*
X017370Y015120D01*
X017215Y015067D02*
X017002Y015067D01*
X016847Y015067D02*
X016740Y015067D01*
X016634Y015227D02*
X016847Y015227D01*
X016847Y014907D01*
X016479Y014907D02*
X016372Y014907D01*
X016425Y014907D02*
X016425Y015120D01*
X016479Y015120D01*
X016425Y015227D02*
X016425Y015280D01*
X016632Y015400D02*
X016525Y015507D01*
X016579Y015507D01*
X016579Y015560D01*
X016525Y015560D01*
X016525Y015507D01*
X016787Y015507D02*
X017001Y015720D01*
X017155Y015667D02*
X017155Y015507D01*
X017001Y015507D02*
X016787Y015720D01*
X016602Y016000D02*
X016495Y016107D01*
X016548Y016107D01*
X016548Y016160D01*
X016495Y016160D01*
X016495Y016107D01*
X016756Y016213D02*
X016970Y016213D01*
X016970Y016160D02*
X016970Y016267D01*
X016916Y016320D01*
X016810Y016320D01*
X016756Y016267D01*
X016756Y016213D01*
X016810Y016107D02*
X016916Y016107D01*
X016970Y016160D01*
X017109Y016107D02*
X017215Y016107D01*
X017162Y016107D02*
X017162Y016427D01*
X017215Y016427D01*
X017370Y016320D02*
X017530Y016320D01*
X017584Y016267D01*
X017584Y016160D01*
X017530Y016107D01*
X017370Y016107D01*
X017370Y016053D02*
X017370Y016320D01*
X017370Y016053D02*
X017424Y016000D01*
X017477Y016000D01*
X017561Y015880D02*
X017561Y015827D01*
X017561Y015720D02*
X017561Y015507D01*
X017614Y015507D02*
X017508Y015507D01*
X017369Y015507D02*
X017369Y015720D01*
X017209Y015720D01*
X017155Y015667D01*
X017561Y015720D02*
X017614Y015720D01*
X017769Y015667D02*
X017769Y015507D01*
X017929Y015507D01*
X017983Y015560D01*
X017929Y015613D01*
X017769Y015613D01*
X017769Y015667D02*
X017823Y015720D01*
X017929Y015720D01*
X018137Y015667D02*
X018137Y015507D01*
X018137Y015667D02*
X018191Y015720D01*
X018298Y015720D01*
X018351Y015667D01*
X018351Y015827D02*
X018351Y015507D01*
X018506Y015507D02*
X018666Y015507D01*
X018719Y015560D01*
X018719Y015667D01*
X018666Y015720D01*
X018506Y015720D01*
X018874Y015720D02*
X019034Y015720D01*
X019088Y015667D01*
X019088Y015560D01*
X019034Y015507D01*
X018874Y015507D01*
X018874Y015453D02*
X018874Y015720D01*
X018874Y015453D02*
X018928Y015400D01*
X018981Y015400D01*
X019242Y015560D02*
X019242Y015667D01*
X019296Y015720D01*
X019403Y015720D01*
X019456Y015667D01*
X019456Y015560D01*
X019403Y015507D01*
X019296Y015507D01*
X019242Y015560D01*
X019611Y015507D02*
X019771Y015507D01*
X019824Y015560D01*
X019824Y015667D01*
X019771Y015720D01*
X019611Y015720D01*
X019611Y015827D02*
X019611Y015507D01*
X019249Y015120D02*
X019302Y015067D01*
X018566Y015067D02*
X018512Y015120D01*
X018406Y015120D01*
X018352Y015067D01*
X018352Y015013D01*
X018566Y015013D01*
X018566Y014960D02*
X018566Y015067D01*
X018566Y014960D02*
X018512Y014907D01*
X018406Y014907D01*
X018198Y014907D02*
X018198Y015120D01*
X018037Y015120D01*
X017984Y015067D01*
X017984Y014907D01*
X017829Y014907D02*
X017722Y014907D01*
X017776Y014907D02*
X017776Y015120D01*
X017829Y015120D01*
X017776Y015227D02*
X017776Y015280D01*
X017584Y015120D02*
X017370Y014907D01*
X017408Y014520D02*
X017461Y014467D01*
X017461Y014360D01*
X017408Y014307D01*
X017247Y014307D01*
X017093Y014360D02*
X017093Y014467D01*
X017039Y014520D01*
X016932Y014520D01*
X016879Y014467D01*
X016879Y014413D01*
X017093Y014413D01*
X017093Y014360D02*
X017039Y014307D01*
X016932Y014307D01*
X016671Y014360D02*
X016618Y014307D01*
X016671Y014360D02*
X016671Y014574D01*
X016724Y014520D02*
X016618Y014520D01*
X016479Y014520D02*
X016479Y014360D01*
X016425Y014307D01*
X016265Y014307D01*
X016265Y014520D01*
X016110Y014520D02*
X015897Y014307D01*
X015742Y014200D02*
X015635Y014307D01*
X015689Y014307D01*
X015689Y014360D01*
X015635Y014360D01*
X015635Y014307D01*
X015897Y014520D02*
X016110Y014307D01*
X016233Y014907D02*
X016233Y015120D01*
X016126Y015120D02*
X016073Y015120D01*
X016126Y015120D02*
X016233Y015013D01*
X015926Y015013D02*
X015713Y015013D01*
X015713Y015067D01*
X015766Y015120D01*
X015873Y015120D01*
X015926Y015067D01*
X015926Y014960D01*
X015873Y014907D01*
X015766Y014907D01*
X015558Y014800D02*
X015451Y014907D01*
X015505Y014907D01*
X015505Y014960D01*
X015451Y014960D01*
X015451Y014907D01*
X017247Y014520D02*
X017408Y014520D01*
X018168Y013920D02*
X018168Y013653D01*
X018222Y013600D01*
X018275Y013600D01*
X020516Y012827D02*
X020516Y012507D01*
X020622Y012507D02*
X020409Y012507D01*
X020622Y012720D02*
X020516Y012827D01*
X020777Y012720D02*
X020991Y012507D01*
X020991Y012720D02*
X020777Y012507D01*
X021498Y012507D02*
X021551Y012507D01*
X021551Y012560D01*
X021498Y012560D01*
X021498Y012507D01*
X021604Y012400D01*
X021813Y012507D02*
X021919Y012507D01*
X021973Y012560D01*
X021973Y012667D01*
X021919Y012720D01*
X021813Y012720D01*
X021759Y012667D01*
X021759Y012613D01*
X021973Y012613D01*
X022112Y012507D02*
X022218Y012507D01*
X022165Y012507D02*
X022165Y012827D01*
X022218Y012827D01*
X023094Y012720D02*
X023200Y012720D01*
X023355Y012667D02*
X023355Y012613D01*
X023569Y012613D01*
X023569Y012560D02*
X023569Y012667D01*
X023515Y012720D01*
X023409Y012720D01*
X023355Y012667D01*
X023409Y012507D02*
X023515Y012507D01*
X023569Y012560D01*
X023724Y012720D02*
X023830Y012507D01*
X023937Y012720D01*
X024092Y012667D02*
X024092Y012507D01*
X024252Y012507D01*
X024305Y012560D01*
X024252Y012613D01*
X024092Y012613D01*
X024092Y012667D02*
X024145Y012720D01*
X024252Y012720D01*
X023630Y013000D02*
X023523Y013107D01*
X023577Y013107D01*
X023577Y013160D01*
X023523Y013160D01*
X023523Y013107D01*
X024213Y013707D02*
X024213Y013920D01*
X024107Y013920D02*
X024053Y013920D01*
X024107Y013920D02*
X024213Y013813D01*
X023293Y014307D02*
X023293Y014627D01*
X023132Y014520D02*
X023293Y014413D01*
X023132Y014307D01*
X022986Y014360D02*
X022932Y014307D01*
X022772Y014307D01*
X022772Y014253D02*
X022825Y014200D01*
X022879Y014200D01*
X022772Y014253D02*
X022772Y014520D01*
X022617Y014627D02*
X022564Y014627D01*
X022564Y014307D01*
X022617Y014307D02*
X022511Y014307D01*
X022372Y014307D02*
X022265Y014307D01*
X022318Y014307D02*
X022318Y014520D01*
X022372Y014520D01*
X022318Y014627D02*
X022318Y014680D01*
X022310Y014907D02*
X022150Y014907D01*
X022097Y014960D01*
X022150Y015013D01*
X022257Y015013D01*
X022310Y015067D01*
X022257Y015120D01*
X022097Y015120D01*
X021889Y014960D02*
X021889Y014907D01*
X021835Y014907D01*
X021835Y014960D01*
X021889Y014960D01*
X021835Y014907D02*
X021942Y014800D01*
X021913Y014520D02*
X022126Y014307D01*
X022126Y014520D02*
X021913Y014307D01*
X021758Y014200D02*
X021651Y014307D01*
X021705Y014307D01*
X021705Y014360D01*
X021651Y014360D01*
X021651Y014307D01*
X021729Y013920D02*
X021889Y013920D01*
X021942Y013867D01*
X021889Y013813D01*
X021782Y013813D01*
X021729Y013760D01*
X021782Y013707D01*
X021942Y013707D01*
X021574Y013760D02*
X021574Y013867D01*
X021520Y013920D01*
X021414Y013920D01*
X021360Y013867D01*
X021360Y013813D01*
X021574Y013813D01*
X021574Y013760D02*
X021520Y013707D01*
X021414Y013707D01*
X022986Y014360D02*
X022986Y014520D01*
X022924Y014907D02*
X022817Y014907D01*
X022871Y014907D02*
X022871Y015120D01*
X022924Y015120D01*
X022871Y015227D02*
X022871Y015280D01*
X022679Y015120D02*
X022679Y014960D01*
X022625Y014907D01*
X022465Y014907D01*
X022465Y015120D01*
X022218Y015507D02*
X022218Y015827D01*
X022003Y016000D02*
X021897Y016107D01*
X021950Y016107D01*
X021950Y016160D01*
X021897Y016160D01*
X021897Y016107D01*
X022158Y016160D02*
X022212Y016107D01*
X022318Y016107D01*
X022372Y016160D01*
X022372Y016374D01*
X022318Y016427D01*
X022212Y016427D01*
X022158Y016374D01*
X022096Y016707D02*
X022096Y017027D01*
X021935Y016920D02*
X022096Y016813D01*
X021935Y016707D01*
X021789Y016707D02*
X021628Y016707D01*
X021575Y016760D01*
X021628Y016813D01*
X021735Y016813D01*
X021789Y016867D01*
X021735Y016920D01*
X021575Y016920D01*
X021052Y016920D02*
X020945Y016920D01*
X020999Y016974D02*
X020999Y016760D01*
X020945Y016707D01*
X020806Y016760D02*
X020753Y016707D01*
X020646Y016707D01*
X020593Y016760D01*
X020593Y016867D01*
X020646Y016920D01*
X020753Y016920D01*
X020806Y016867D01*
X020806Y016760D01*
X020438Y016760D02*
X020438Y016707D01*
X020385Y016707D01*
X020385Y016760D01*
X020438Y016760D01*
X020438Y016867D02*
X020438Y016920D01*
X020385Y016920D01*
X020385Y016867D01*
X020438Y016867D01*
X020493Y016320D02*
X020546Y016320D01*
X020653Y016213D01*
X020653Y016107D02*
X020653Y016320D01*
X020346Y016320D02*
X020346Y016107D01*
X020346Y016213D02*
X020239Y016320D01*
X020186Y016320D01*
X020039Y016267D02*
X020039Y016160D01*
X019986Y016107D01*
X019879Y016107D01*
X019826Y016160D01*
X019826Y016267D01*
X019879Y016320D01*
X019986Y016320D01*
X020039Y016267D01*
X019671Y016267D02*
X019617Y016320D01*
X019457Y016320D01*
X019511Y016213D02*
X019617Y016213D01*
X019671Y016267D01*
X019671Y016107D02*
X019511Y016107D01*
X019457Y016160D01*
X019511Y016213D01*
X019249Y016160D02*
X019249Y016107D01*
X019196Y016107D01*
X019196Y016160D01*
X019249Y016160D01*
X019196Y016107D02*
X019302Y016000D01*
X018689Y016107D02*
X018689Y016427D01*
X018528Y016427D01*
X018475Y016374D01*
X018475Y016320D01*
X018528Y016267D01*
X018689Y016267D01*
X018689Y016107D02*
X018528Y016107D01*
X018475Y016160D01*
X018475Y016213D01*
X018528Y016267D01*
X018320Y016267D02*
X018267Y016320D01*
X018160Y016320D01*
X018107Y016267D01*
X018107Y016213D01*
X018320Y016213D01*
X018320Y016160D02*
X018320Y016267D01*
X018320Y016160D02*
X018267Y016107D01*
X018160Y016107D01*
X017952Y016160D02*
X017952Y016267D01*
X017899Y016320D01*
X017792Y016320D01*
X017738Y016267D01*
X017738Y016213D01*
X017952Y016213D01*
X017952Y016160D02*
X017899Y016107D01*
X017792Y016107D01*
X020808Y016053D02*
X021021Y016053D01*
X021176Y016160D02*
X021176Y016267D01*
X021229Y016320D01*
X021390Y016320D01*
X021390Y016427D02*
X021390Y016107D01*
X021229Y016107D01*
X021176Y016160D01*
X021121Y015880D02*
X021121Y015827D01*
X022527Y016107D02*
X022527Y016267D01*
X022580Y016320D01*
X022687Y016320D01*
X022687Y016213D02*
X022527Y016213D01*
X022527Y016107D02*
X022687Y016107D01*
X022740Y016160D01*
X022687Y016213D01*
X022895Y016267D02*
X022895Y016107D01*
X022895Y016267D02*
X022948Y016320D01*
X023055Y016320D01*
X023108Y016267D01*
X023263Y016267D02*
X023263Y016160D01*
X023317Y016107D01*
X023477Y016107D01*
X023477Y016000D02*
X023477Y016320D01*
X023317Y016320D01*
X023263Y016267D01*
X023108Y016427D02*
X023108Y016107D01*
X022955Y015720D02*
X022955Y015560D01*
X023132Y015120D02*
X023079Y015067D01*
X023079Y014907D01*
X023293Y014907D02*
X023293Y015120D01*
X023132Y015120D01*
X023485Y015120D02*
X023485Y014907D01*
X023538Y014907D02*
X023431Y014907D01*
X023485Y015120D02*
X023538Y015120D01*
X023485Y015227D02*
X023485Y015280D01*
X023462Y016707D02*
X023462Y017027D01*
X023569Y017027D02*
X023355Y017027D01*
X023200Y017027D02*
X023200Y016707D01*
X023200Y016867D02*
X023147Y016920D01*
X023040Y016920D01*
X022987Y016867D01*
X022987Y016707D01*
X022832Y016760D02*
X022779Y016813D01*
X022619Y016813D01*
X022619Y016867D02*
X022619Y016707D01*
X022779Y016707D01*
X022832Y016760D01*
X022779Y016920D02*
X022672Y016920D01*
X022619Y016867D01*
X022464Y016920D02*
X022304Y016920D01*
X022250Y016867D01*
X022250Y016707D01*
X022464Y016707D02*
X022464Y016920D01*
X026699Y013320D02*
X026699Y013107D01*
X028250Y013107D02*
X028304Y013160D01*
D13*
X037551Y044917D03*
X037551Y045917D03*
X015551Y045917D03*
X015551Y044917D03*
D14*
X059551Y044917D03*
X059551Y045917D03*
D15*
X059551Y009867D03*
X058551Y009867D03*
X057551Y009867D03*
X056551Y009867D03*
X055551Y009867D03*
X054551Y009867D03*
X053551Y009867D03*
X052551Y009867D03*
X048551Y009867D03*
X047551Y009867D03*
X046551Y009867D03*
X045551Y009867D03*
X044551Y009867D03*
X043551Y009867D03*
X042551Y009867D03*
X041551Y009867D03*
X040551Y009867D03*
X039551Y009867D03*
X038551Y009867D03*
X037551Y009867D03*
X036551Y009867D03*
X035551Y009867D03*
X034551Y009867D03*
X033551Y009867D03*
X032551Y009867D03*
X031551Y009867D03*
X060551Y009867D03*
X061551Y009867D03*
X062551Y009867D03*
X063551Y009867D03*
X064551Y009867D03*
X065551Y009867D03*
X066551Y009867D03*
X067551Y009867D03*
X068551Y009867D03*
X069551Y009867D03*
X070551Y009867D03*
X071551Y009867D03*
X072551Y009867D03*
X073551Y009867D03*
X074551Y009867D03*
X075551Y009867D03*
X076551Y009867D03*
X077551Y009867D03*
X078551Y009867D03*
X079551Y009867D03*
X080551Y009867D03*
X081551Y009867D03*
X082551Y009867D03*
D16*
X088551Y020647D03*
X076451Y042067D03*
X071551Y042067D03*
D17*
X056301Y045417D03*
X089551Y020107D03*
X088551Y019567D03*
X089551Y019027D03*
X088551Y018487D03*
X089551Y017947D03*
X088551Y017407D03*
X089551Y016867D03*
X088551Y016327D03*
X089551Y015787D03*
X088551Y015247D03*
X089551Y014707D03*
X088551Y014167D03*
X089551Y013627D03*
X088551Y013087D03*
D18*
X089051Y010307D03*
X089051Y023427D03*
D19*
X091351Y025498D03*
X092336Y025498D03*
X089383Y027467D03*
X091351Y029435D03*
X092336Y029435D03*
X092336Y030598D03*
X091351Y030598D03*
X089383Y032567D03*
X091351Y034535D03*
X092336Y034535D03*
X092336Y035698D03*
X091351Y035698D03*
X089383Y037667D03*
X091351Y039635D03*
X092336Y039635D03*
D20*
X089383Y039675D03*
X089383Y038651D03*
X091351Y037667D03*
X089383Y036682D03*
X089383Y035659D03*
X089383Y034575D03*
X089383Y033551D03*
X091351Y032567D03*
X089383Y031582D03*
X089383Y030559D03*
X089383Y029475D03*
X089383Y028451D03*
X091351Y027467D03*
X089383Y026482D03*
X089383Y025459D03*
D21*
X086451Y024667D03*
X084201Y022767D03*
X082251Y024317D03*
X071101Y024467D03*
X071051Y027167D03*
X075901Y033967D03*
X078201Y035317D03*
X075901Y036667D03*
X075901Y039367D03*
X086451Y029467D03*
X053651Y015467D03*
X032451Y015567D03*
D22*
X032451Y016567D03*
X053651Y016467D03*
X071101Y025467D03*
X071051Y028167D03*
X082251Y025317D03*
X084201Y023767D03*
X086451Y025667D03*
X086451Y030467D03*
X075901Y034967D03*
X078201Y036317D03*
X075901Y037667D03*
X075901Y040367D03*
D23*
X075501Y024247D02*
X075501Y023687D01*
X074501Y023687D02*
X074501Y024247D01*
X073501Y024247D02*
X073501Y023687D01*
X077701Y023687D02*
X077701Y024247D01*
X078701Y024247D02*
X078701Y023687D01*
X079701Y023687D02*
X079701Y024247D01*
D24*
X078701Y029867D03*
X074501Y029867D03*
D25*
X050351Y028617D03*
X047151Y028617D03*
X047151Y026717D03*
X050351Y026717D03*
D26*
X075051Y015567D03*
X076051Y015567D03*
X077551Y017067D03*
X077551Y018067D03*
X080551Y018067D03*
X080551Y017067D03*
X080551Y013067D03*
X079551Y013067D03*
X078551Y013067D03*
X077551Y013067D03*
X076551Y013067D03*
X075551Y013067D03*
X074551Y013067D03*
X073551Y013067D03*
X072551Y013067D03*
X071551Y013067D03*
X070551Y013067D03*
X069551Y013067D03*
X068551Y013067D03*
X067551Y013067D03*
X066551Y013067D03*
X065551Y013067D03*
X064551Y013067D03*
X063551Y013067D03*
X062551Y013067D03*
X061551Y013067D03*
X060551Y013067D03*
X059551Y013067D03*
X058551Y013067D03*
X057551Y013067D03*
X056551Y013067D03*
X055551Y013067D03*
X054551Y013067D03*
X053551Y013067D03*
X052551Y013067D03*
X052551Y012067D03*
X053551Y012067D03*
X054551Y012067D03*
X055551Y012067D03*
X056551Y012067D03*
X057551Y012067D03*
X058551Y012067D03*
X059551Y012067D03*
X060551Y012067D03*
X061551Y012067D03*
X062551Y012067D03*
X063551Y012067D03*
X064551Y012067D03*
X065551Y012067D03*
X066551Y012067D03*
X067551Y012067D03*
X068551Y012067D03*
X069551Y012067D03*
X070551Y012067D03*
X071551Y012067D03*
X072551Y012067D03*
X073551Y012067D03*
X074551Y012067D03*
X075551Y012067D03*
X076551Y012067D03*
X077551Y012067D03*
X078551Y012067D03*
X079551Y012067D03*
X080551Y012067D03*
X081551Y012067D03*
X082551Y012067D03*
X082551Y013067D03*
X081551Y013067D03*
X048551Y013067D03*
X047551Y013067D03*
X046551Y013067D03*
X045551Y013067D03*
X044551Y013067D03*
X043551Y013067D03*
X042551Y013067D03*
X041551Y013067D03*
X040551Y013067D03*
X039551Y013067D03*
X038551Y013067D03*
X037551Y013067D03*
X036551Y013067D03*
X035551Y013067D03*
X034551Y013067D03*
X033551Y013067D03*
X032551Y013067D03*
X031551Y013067D03*
X031551Y012067D03*
X032551Y012067D03*
X033551Y012067D03*
X034551Y012067D03*
X035551Y012067D03*
X036551Y012067D03*
X037551Y012067D03*
X038551Y012067D03*
X039551Y012067D03*
X040551Y012067D03*
X041551Y012067D03*
X042551Y012067D03*
X043551Y012067D03*
X044551Y012067D03*
X045551Y012067D03*
X046551Y012067D03*
X047551Y012067D03*
X048551Y012067D03*
X062551Y042067D03*
X063551Y042067D03*
X063551Y043067D03*
X062551Y043067D03*
X062551Y044067D03*
X063551Y044067D03*
X063551Y045067D03*
X062551Y045067D03*
X055801Y046417D03*
X054801Y046417D03*
X053801Y046417D03*
X052801Y046417D03*
X051801Y046417D03*
X050801Y046417D03*
X049801Y046417D03*
X048801Y046417D03*
X047801Y046417D03*
X046801Y046417D03*
X045801Y046417D03*
X044801Y046417D03*
X043801Y046417D03*
X042801Y046417D03*
X041801Y046417D03*
X040801Y046417D03*
X039801Y046417D03*
X038801Y046417D03*
X039301Y045417D03*
X040301Y045417D03*
X041301Y045417D03*
X042301Y045417D03*
X043301Y045417D03*
X044301Y045417D03*
X045301Y045417D03*
X046301Y045417D03*
X047301Y045417D03*
X048301Y045417D03*
X049301Y045417D03*
X050301Y045417D03*
X051301Y045417D03*
X052301Y045417D03*
X053301Y045417D03*
X054301Y045417D03*
X055301Y045417D03*
X072551Y042067D03*
X073551Y042067D03*
X074551Y042067D03*
X077451Y042067D03*
X078451Y042067D03*
X079451Y042067D03*
X036301Y045417D03*
X035301Y045417D03*
X034301Y045417D03*
X033301Y045417D03*
X032301Y045417D03*
X031301Y045417D03*
X030301Y045417D03*
X029301Y045417D03*
X028301Y045417D03*
X027301Y045417D03*
X026301Y045417D03*
X025301Y045417D03*
X024301Y045417D03*
X023301Y045417D03*
X022301Y045417D03*
X021301Y045417D03*
X020301Y045417D03*
X019301Y045417D03*
X018801Y046417D03*
X019801Y046417D03*
X020801Y046417D03*
X021801Y046417D03*
X022801Y046417D03*
X023801Y046417D03*
X024801Y046417D03*
X025801Y046417D03*
X026801Y046417D03*
X027801Y046417D03*
X028801Y046417D03*
X029801Y046417D03*
X030801Y046417D03*
X031801Y046417D03*
X032801Y046417D03*
X033801Y046417D03*
X034801Y046417D03*
X035801Y046417D03*
M02*
