G75*
G70*
%OFA0B0*%
%FSLAX24Y24*%
%IPPOS*%
%LPD*%
%AMOC8*
5,1,8,0,0,1.08239X$1,22.5*
%
%ADD10R,0.0866X0.0138*%
%ADD11R,0.0138X0.0866*%
%ADD12R,0.0236X0.2323*%
%ADD13R,0.0236X0.0591*%
%ADD14R,0.0260X0.0800*%
%ADD15R,0.0236X0.0630*%
%ADD16R,0.0630X0.0236*%
%ADD17R,0.0591X0.0512*%
%ADD18R,0.0512X0.0591*%
%ADD19R,0.0460X0.0630*%
%ADD20R,0.0256X0.1260*%
%ADD21R,0.0630X0.0460*%
D10*
X054056Y025127D03*
X054056Y025382D03*
X054056Y025638D03*
X054056Y025894D03*
X054056Y026150D03*
X054056Y026406D03*
X054056Y026662D03*
X054056Y026918D03*
X054056Y027174D03*
X054056Y027430D03*
X054056Y027686D03*
X054056Y027941D03*
X054056Y028197D03*
X054056Y028453D03*
X054056Y028709D03*
X054056Y028965D03*
X054056Y029221D03*
X054056Y029477D03*
X054056Y029733D03*
X054056Y029989D03*
X054056Y030245D03*
X054056Y030501D03*
X054056Y030756D03*
X054056Y031012D03*
X054056Y031268D03*
X054056Y031524D03*
X054056Y031780D03*
X054056Y032036D03*
X054056Y032292D03*
X054056Y032548D03*
X054056Y032804D03*
X054056Y033060D03*
X054056Y033315D03*
X054056Y033571D03*
X054056Y033827D03*
X054056Y034083D03*
X054056Y034339D03*
X054056Y034595D03*
X054056Y034851D03*
X054056Y035107D03*
X065946Y035107D03*
X065946Y034851D03*
X065946Y034595D03*
X065946Y034339D03*
X065946Y034083D03*
X065946Y033827D03*
X065946Y033571D03*
X065946Y033315D03*
X065946Y033060D03*
X065946Y032804D03*
X065946Y032548D03*
X065946Y032292D03*
X065946Y032036D03*
X065946Y031780D03*
X065946Y031524D03*
X065946Y031268D03*
X065946Y031012D03*
X065946Y030756D03*
X065946Y030501D03*
X065946Y030245D03*
X065946Y029989D03*
X065946Y029733D03*
X065946Y029477D03*
X065946Y029221D03*
X065946Y028965D03*
X065946Y028709D03*
X065946Y028453D03*
X065946Y028197D03*
X065946Y027941D03*
X065946Y027686D03*
X065946Y027430D03*
X065946Y027174D03*
X065946Y026918D03*
X065946Y026662D03*
X065946Y026406D03*
X065946Y026150D03*
X065946Y025894D03*
X065946Y025638D03*
X065946Y025382D03*
X065946Y025127D03*
D11*
X064992Y024172D03*
X064736Y024172D03*
X064480Y024172D03*
X064224Y024172D03*
X063968Y024172D03*
X063712Y024172D03*
X063456Y024172D03*
X063200Y024172D03*
X062944Y024172D03*
X062688Y024172D03*
X062432Y024172D03*
X062177Y024172D03*
X061921Y024172D03*
X061665Y024172D03*
X061409Y024172D03*
X061153Y024172D03*
X060897Y024172D03*
X060641Y024172D03*
X060385Y024172D03*
X060129Y024172D03*
X059873Y024172D03*
X059618Y024172D03*
X059362Y024172D03*
X059106Y024172D03*
X058850Y024172D03*
X058594Y024172D03*
X058338Y024172D03*
X058082Y024172D03*
X057826Y024172D03*
X057570Y024172D03*
X057314Y024172D03*
X057058Y024172D03*
X056803Y024172D03*
X056547Y024172D03*
X056291Y024172D03*
X056035Y024172D03*
X055779Y024172D03*
X055523Y024172D03*
X055267Y024172D03*
X055011Y024172D03*
X055011Y036062D03*
X055267Y036062D03*
X055523Y036062D03*
X055779Y036062D03*
X056035Y036062D03*
X056291Y036062D03*
X056547Y036062D03*
X056803Y036062D03*
X057058Y036062D03*
X057314Y036062D03*
X057570Y036062D03*
X057826Y036062D03*
X058082Y036062D03*
X058338Y036062D03*
X058594Y036062D03*
X058850Y036062D03*
X059106Y036062D03*
X059362Y036062D03*
X059618Y036062D03*
X059873Y036062D03*
X060129Y036062D03*
X060385Y036062D03*
X060641Y036062D03*
X060897Y036062D03*
X061153Y036062D03*
X061409Y036062D03*
X061665Y036062D03*
X061921Y036062D03*
X062177Y036062D03*
X062432Y036062D03*
X062688Y036062D03*
X062944Y036062D03*
X063200Y036062D03*
X063456Y036062D03*
X063712Y036062D03*
X063968Y036062D03*
X064224Y036062D03*
X064480Y036062D03*
X064736Y036062D03*
X064992Y036062D03*
D12*
X042251Y031786D03*
X041751Y031786D03*
X041251Y031786D03*
X040751Y031786D03*
X040251Y031786D03*
X039751Y031786D03*
X039251Y031786D03*
X038751Y031786D03*
X038251Y031786D03*
X037751Y031786D03*
X037251Y031786D03*
X036751Y031786D03*
X036251Y031786D03*
X035751Y031786D03*
X035251Y031786D03*
X034751Y031786D03*
X034251Y031786D03*
X033751Y031786D03*
X033251Y031786D03*
X032751Y031786D03*
X032251Y031786D03*
X031751Y031786D03*
X031251Y031786D03*
X030751Y031786D03*
X030251Y031786D03*
X030251Y024547D03*
X030751Y024547D03*
X031251Y024547D03*
X031751Y024547D03*
X032251Y024547D03*
X032751Y024547D03*
X033251Y024547D03*
X033751Y024547D03*
X034251Y024547D03*
X034751Y024547D03*
X035251Y024547D03*
X035751Y024547D03*
X036251Y024547D03*
X036751Y024547D03*
X037251Y024547D03*
X037751Y024547D03*
X038251Y024547D03*
X038751Y024547D03*
X039251Y024547D03*
X039751Y024547D03*
X040251Y024547D03*
X040751Y024547D03*
X041251Y024547D03*
X041751Y024547D03*
X042251Y024547D03*
D13*
X042001Y036085D03*
X041501Y036085D03*
X041001Y036085D03*
X040501Y036085D03*
X040001Y036085D03*
X039501Y036085D03*
X039001Y036085D03*
X038501Y036085D03*
X036501Y036085D03*
X036001Y036085D03*
X035501Y036085D03*
X035001Y036085D03*
X034501Y036085D03*
X034001Y036085D03*
X033501Y036085D03*
X033001Y036085D03*
X032501Y036085D03*
X032001Y036085D03*
X032001Y039849D03*
X032501Y039849D03*
X033001Y039849D03*
X033501Y039849D03*
X034001Y039849D03*
X034501Y039849D03*
X035001Y039849D03*
X035501Y039849D03*
X036001Y039849D03*
X036501Y039849D03*
X038501Y039849D03*
X039001Y039849D03*
X039501Y039849D03*
X040001Y039849D03*
X040501Y039849D03*
X041001Y039849D03*
X041501Y039849D03*
X042001Y039849D03*
X042501Y039849D03*
X043001Y039849D03*
X043001Y036085D03*
X042501Y036085D03*
D14*
X066751Y019077D03*
X067251Y019077D03*
X067751Y019077D03*
X068251Y019077D03*
X068751Y019077D03*
X069251Y019077D03*
X069751Y019077D03*
X069751Y016657D03*
X069251Y016657D03*
X068751Y016657D03*
X068251Y016657D03*
X067751Y016657D03*
X067251Y016657D03*
X066751Y016657D03*
D15*
X083501Y027643D03*
X084001Y027643D03*
X084501Y027643D03*
X085001Y027643D03*
X085001Y029690D03*
X084501Y029690D03*
X084001Y029690D03*
X083501Y029690D03*
X049497Y035122D03*
X048997Y035122D03*
X048497Y035122D03*
X048001Y035122D03*
X048001Y037212D03*
X048501Y037212D03*
X049001Y037212D03*
X049501Y037212D03*
D16*
X077428Y037917D03*
X077428Y038417D03*
X077428Y038917D03*
X077428Y039417D03*
X079475Y039417D03*
X079475Y038917D03*
X079475Y038417D03*
X079475Y037917D03*
D17*
X034451Y015793D03*
X034451Y016541D03*
X022101Y021393D03*
X021101Y021393D03*
X021101Y022141D03*
X022101Y022141D03*
X027851Y026493D03*
X027851Y027241D03*
X027851Y034193D03*
X027851Y034941D03*
X022351Y036493D03*
X021351Y036493D03*
X021351Y037241D03*
X022351Y037241D03*
X037551Y038493D03*
X037551Y039241D03*
X044051Y039241D03*
X044051Y038493D03*
X046151Y037241D03*
X046151Y036493D03*
X050351Y036467D03*
X050351Y037136D03*
X050351Y035797D03*
X051951Y035791D03*
X051951Y035043D03*
X056251Y037593D03*
X056251Y038341D03*
X059451Y038093D03*
X059451Y038841D03*
X061451Y038741D03*
X061451Y037993D03*
X061151Y040093D03*
X061151Y040841D03*
X061151Y042893D03*
X061151Y043641D03*
X051951Y028741D03*
X051951Y027993D03*
X051951Y026741D03*
X051951Y025993D03*
X048751Y025893D03*
X048751Y026641D03*
X048751Y027993D03*
X048751Y028741D03*
X045551Y028741D03*
X045551Y027993D03*
X044451Y027691D03*
X044451Y026943D03*
X045551Y026641D03*
X045551Y025893D03*
X055751Y022141D03*
X055751Y021393D03*
X058251Y021393D03*
X058251Y022141D03*
X061251Y022141D03*
X061251Y021393D03*
X064451Y018041D03*
X064451Y017293D03*
X070751Y017293D03*
X070751Y018041D03*
X075151Y017841D03*
X075151Y017093D03*
X076601Y022893D03*
X076601Y023641D03*
X055351Y016441D03*
X055351Y015693D03*
X048451Y015393D03*
X048451Y016141D03*
D18*
X067377Y020467D03*
X068125Y020467D03*
X068477Y024067D03*
X069225Y024067D03*
X069225Y025067D03*
X068477Y025067D03*
X068477Y026067D03*
X069225Y026067D03*
X068725Y027567D03*
X067977Y027567D03*
X067977Y028567D03*
X068725Y028567D03*
X070477Y029667D03*
X071225Y029667D03*
X071225Y030667D03*
X070477Y030667D03*
X068725Y031267D03*
X067977Y031267D03*
X067977Y032267D03*
X068725Y032267D03*
X070477Y032167D03*
X071225Y032167D03*
X071225Y033267D03*
X070477Y033267D03*
X068725Y033267D03*
X067977Y033267D03*
X067977Y034267D03*
X068725Y034267D03*
X070477Y034267D03*
X071225Y034267D03*
X071225Y035267D03*
X070477Y035267D03*
X068725Y035267D03*
X067977Y035267D03*
X067977Y036467D03*
X068725Y036467D03*
X070477Y036267D03*
X071225Y036267D03*
X073477Y036267D03*
X074225Y036267D03*
X074225Y037267D03*
X073477Y037267D03*
X073477Y035267D03*
X074225Y035267D03*
X074225Y034267D03*
X073477Y034267D03*
X081677Y034767D03*
X082425Y034767D03*
X083877Y034967D03*
X084625Y034967D03*
X084625Y035967D03*
X083877Y035967D03*
X082425Y036467D03*
X081677Y036467D03*
X081677Y037467D03*
X082425Y037467D03*
X083877Y036967D03*
X084625Y036967D03*
X086777Y037167D03*
X087525Y037167D03*
X087525Y036167D03*
X086777Y036167D03*
X086777Y034967D03*
X087525Y034967D03*
X087525Y033967D03*
X086777Y033967D03*
X086777Y032967D03*
X087525Y032967D03*
X087525Y031967D03*
X086777Y031967D03*
X084625Y032467D03*
X083877Y032467D03*
X082425Y032767D03*
X081677Y032767D03*
X081677Y031767D03*
X082425Y031767D03*
X083877Y031467D03*
X084625Y031467D03*
X082425Y030767D03*
X081677Y030767D03*
X081677Y029767D03*
X082425Y029767D03*
X082425Y028767D03*
X081677Y028767D03*
X081677Y027767D03*
X082425Y027767D03*
X082425Y026767D03*
X081677Y026767D03*
X083977Y026467D03*
X084725Y026467D03*
X086077Y026867D03*
X086825Y026867D03*
X086825Y028067D03*
X086077Y028067D03*
X085977Y022867D03*
X086725Y022867D03*
X086725Y021867D03*
X085977Y021867D03*
X085977Y020867D03*
X086725Y020867D03*
X086725Y019867D03*
X085977Y019867D03*
X085977Y018867D03*
X086725Y018867D03*
X086725Y017867D03*
X085977Y017867D03*
X085977Y016867D03*
X086725Y016867D03*
X086725Y015867D03*
X085977Y015867D03*
X085977Y014867D03*
X086725Y014867D03*
X086725Y013867D03*
X085977Y013867D03*
X085977Y012867D03*
X086725Y012867D03*
X083125Y014467D03*
X082377Y014467D03*
X082377Y015467D03*
X083125Y015467D03*
X083125Y016467D03*
X082377Y016467D03*
X080625Y015467D03*
X079877Y015467D03*
X079877Y014467D03*
X080625Y014467D03*
X079425Y017067D03*
X078677Y017067D03*
X078677Y018067D03*
X079425Y018067D03*
X082777Y018167D03*
X083525Y018167D03*
X083525Y019167D03*
X082777Y019167D03*
X082777Y020167D03*
X083525Y020167D03*
X083525Y021167D03*
X082777Y021167D03*
X081825Y022767D03*
X081077Y022767D03*
X068725Y029967D03*
X067977Y029967D03*
X052025Y030867D03*
X051277Y030867D03*
X051277Y031867D03*
X052025Y031867D03*
X046875Y032917D03*
X046127Y032917D03*
X045275Y032917D03*
X044527Y032917D03*
X044527Y033917D03*
X045275Y033917D03*
X045327Y031917D03*
X046075Y031917D03*
X027075Y041417D03*
X026327Y041417D03*
X025275Y041417D03*
X024527Y041417D03*
X024527Y042417D03*
X025275Y042417D03*
X026327Y042417D03*
X027075Y042417D03*
X077377Y040467D03*
X078125Y040467D03*
X081677Y040767D03*
X082425Y040767D03*
X083877Y040767D03*
X084625Y040767D03*
X084625Y041967D03*
X083877Y041967D03*
X082425Y041967D03*
X081677Y041967D03*
X081677Y042967D03*
X082425Y042967D03*
X082425Y039767D03*
X081677Y039767D03*
X081677Y038667D03*
X082425Y038667D03*
X083877Y038167D03*
X084625Y038167D03*
X084625Y039467D03*
X083877Y039467D03*
X086777Y039167D03*
X087525Y039167D03*
X087525Y038167D03*
X086777Y038167D03*
X084625Y033467D03*
X083877Y033467D03*
D19*
X028451Y032667D03*
X027851Y032667D03*
X027251Y032667D03*
X027251Y031467D03*
X027851Y031467D03*
X028451Y031467D03*
X028451Y030267D03*
X027851Y030267D03*
X027251Y030267D03*
X027251Y029067D03*
X027851Y029067D03*
X028451Y029067D03*
D20*
X026101Y027849D03*
X025601Y027849D03*
X025101Y027849D03*
X024601Y027849D03*
X024101Y027849D03*
X023601Y027849D03*
X023101Y027849D03*
X022601Y027849D03*
X022101Y027849D03*
X021601Y027849D03*
X021101Y027849D03*
X020601Y027849D03*
X020101Y027849D03*
X019601Y027849D03*
X019101Y027849D03*
X018601Y027849D03*
X018101Y027849D03*
X017601Y027849D03*
X017101Y027849D03*
X016601Y027849D03*
X016101Y027849D03*
X016101Y030785D03*
X016601Y030785D03*
X017101Y030785D03*
X017601Y030785D03*
X018101Y030785D03*
X018601Y030785D03*
X019101Y030785D03*
X019601Y030785D03*
X020101Y030785D03*
X020601Y030785D03*
X021101Y030785D03*
X021601Y030785D03*
X022101Y030785D03*
X022601Y030785D03*
X023101Y030785D03*
X023601Y030785D03*
X024101Y030785D03*
X024601Y030785D03*
X025101Y030785D03*
X025601Y030785D03*
X026101Y030785D03*
X026101Y034549D03*
X025601Y034549D03*
X025101Y034549D03*
X024601Y034549D03*
X024101Y034549D03*
X023601Y034549D03*
X023101Y034549D03*
X022601Y034549D03*
X022101Y034549D03*
X021601Y034549D03*
X021101Y034549D03*
X020601Y034549D03*
X020101Y034549D03*
X019601Y034549D03*
X019101Y034549D03*
X018601Y034549D03*
X018101Y034549D03*
X017601Y034549D03*
X017101Y034549D03*
X016601Y034549D03*
X016101Y034549D03*
X016101Y024085D03*
X016601Y024085D03*
X017101Y024085D03*
X017601Y024085D03*
X018101Y024085D03*
X018601Y024085D03*
X019101Y024085D03*
X019601Y024085D03*
X020101Y024085D03*
X020601Y024085D03*
X021101Y024085D03*
X021601Y024085D03*
X022101Y024085D03*
X022601Y024085D03*
X023101Y024085D03*
X023601Y024085D03*
X024101Y024085D03*
X024601Y024085D03*
X025101Y024085D03*
X025601Y024085D03*
X026101Y024085D03*
D21*
X025801Y038417D03*
X025801Y039017D03*
X025801Y039617D03*
X027201Y039617D03*
X027201Y039017D03*
X027201Y038417D03*
M02*
