G75*
G70*
%OFA0B0*%
%FSLAX24Y24*%
%IPPOS*%
%LPD*%
%AMOC8*
5,1,8,0,0,1.08239X$1,22.5*
%
%ADD10C,0.0100*%
%ADD11C,0.0000*%
%ADD12C,0.0080*%
D10*
X014201Y011167D02*
X030601Y011167D01*
X030601Y008317D01*
X030851Y008067D01*
X049251Y008067D01*
X049501Y008317D01*
X049501Y011167D01*
X051601Y011167D01*
X051601Y008317D01*
X051851Y008067D01*
X083251Y008067D01*
X083501Y008317D01*
X083501Y011167D01*
X085601Y011167D01*
X085601Y008817D01*
X085851Y008567D01*
X092751Y008567D01*
X092751Y047367D01*
X014201Y047367D01*
X014201Y011167D01*
D11*
X073851Y029867D02*
X073853Y029917D01*
X073859Y029967D01*
X073869Y030017D01*
X073882Y030065D01*
X073899Y030113D01*
X073920Y030159D01*
X073944Y030203D01*
X073972Y030245D01*
X074003Y030285D01*
X074037Y030322D01*
X074074Y030357D01*
X074113Y030388D01*
X074154Y030417D01*
X074198Y030442D01*
X074244Y030464D01*
X074291Y030482D01*
X074339Y030496D01*
X074388Y030507D01*
X074438Y030514D01*
X074488Y030517D01*
X074539Y030516D01*
X074589Y030511D01*
X074639Y030502D01*
X074687Y030490D01*
X074735Y030473D01*
X074781Y030453D01*
X074826Y030430D01*
X074869Y030403D01*
X074909Y030373D01*
X074947Y030340D01*
X074982Y030304D01*
X075015Y030265D01*
X075044Y030224D01*
X075070Y030181D01*
X075093Y030136D01*
X075112Y030089D01*
X075127Y030041D01*
X075139Y029992D01*
X075147Y029942D01*
X075151Y029892D01*
X075151Y029842D01*
X075147Y029792D01*
X075139Y029742D01*
X075127Y029693D01*
X075112Y029645D01*
X075093Y029598D01*
X075070Y029553D01*
X075044Y029510D01*
X075015Y029469D01*
X074982Y029430D01*
X074947Y029394D01*
X074909Y029361D01*
X074869Y029331D01*
X074826Y029304D01*
X074781Y029281D01*
X074735Y029261D01*
X074687Y029244D01*
X074639Y029232D01*
X074589Y029223D01*
X074539Y029218D01*
X074488Y029217D01*
X074438Y029220D01*
X074388Y029227D01*
X074339Y029238D01*
X074291Y029252D01*
X074244Y029270D01*
X074198Y029292D01*
X074154Y029317D01*
X074113Y029346D01*
X074074Y029377D01*
X074037Y029412D01*
X074003Y029449D01*
X073972Y029489D01*
X073944Y029531D01*
X073920Y029575D01*
X073899Y029621D01*
X073882Y029669D01*
X073869Y029717D01*
X073859Y029767D01*
X073853Y029817D01*
X073851Y029867D01*
X078051Y029867D02*
X078053Y029917D01*
X078059Y029967D01*
X078069Y030017D01*
X078082Y030065D01*
X078099Y030113D01*
X078120Y030159D01*
X078144Y030203D01*
X078172Y030245D01*
X078203Y030285D01*
X078237Y030322D01*
X078274Y030357D01*
X078313Y030388D01*
X078354Y030417D01*
X078398Y030442D01*
X078444Y030464D01*
X078491Y030482D01*
X078539Y030496D01*
X078588Y030507D01*
X078638Y030514D01*
X078688Y030517D01*
X078739Y030516D01*
X078789Y030511D01*
X078839Y030502D01*
X078887Y030490D01*
X078935Y030473D01*
X078981Y030453D01*
X079026Y030430D01*
X079069Y030403D01*
X079109Y030373D01*
X079147Y030340D01*
X079182Y030304D01*
X079215Y030265D01*
X079244Y030224D01*
X079270Y030181D01*
X079293Y030136D01*
X079312Y030089D01*
X079327Y030041D01*
X079339Y029992D01*
X079347Y029942D01*
X079351Y029892D01*
X079351Y029842D01*
X079347Y029792D01*
X079339Y029742D01*
X079327Y029693D01*
X079312Y029645D01*
X079293Y029598D01*
X079270Y029553D01*
X079244Y029510D01*
X079215Y029469D01*
X079182Y029430D01*
X079147Y029394D01*
X079109Y029361D01*
X079069Y029331D01*
X079026Y029304D01*
X078981Y029281D01*
X078935Y029261D01*
X078887Y029244D01*
X078839Y029232D01*
X078789Y029223D01*
X078739Y029218D01*
X078688Y029217D01*
X078638Y029220D01*
X078588Y029227D01*
X078539Y029238D01*
X078491Y029252D01*
X078444Y029270D01*
X078398Y029292D01*
X078354Y029317D01*
X078313Y029346D01*
X078274Y029377D01*
X078237Y029412D01*
X078203Y029449D01*
X078172Y029489D01*
X078144Y029531D01*
X078120Y029575D01*
X078099Y029621D01*
X078082Y029669D01*
X078069Y029717D01*
X078059Y029767D01*
X078053Y029817D01*
X078051Y029867D01*
X089147Y027467D02*
X089149Y027497D01*
X089155Y027527D01*
X089164Y027556D01*
X089177Y027583D01*
X089194Y027608D01*
X089213Y027631D01*
X089236Y027652D01*
X089261Y027669D01*
X089287Y027683D01*
X089316Y027693D01*
X089345Y027700D01*
X089375Y027703D01*
X089406Y027702D01*
X089436Y027697D01*
X089465Y027688D01*
X089492Y027676D01*
X089518Y027661D01*
X089542Y027642D01*
X089563Y027620D01*
X089581Y027596D01*
X089596Y027569D01*
X089607Y027541D01*
X089615Y027512D01*
X089619Y027482D01*
X089619Y027452D01*
X089615Y027422D01*
X089607Y027393D01*
X089596Y027365D01*
X089581Y027338D01*
X089563Y027314D01*
X089542Y027292D01*
X089518Y027273D01*
X089492Y027258D01*
X089465Y027246D01*
X089436Y027237D01*
X089406Y027232D01*
X089375Y027231D01*
X089345Y027234D01*
X089316Y027241D01*
X089287Y027251D01*
X089261Y027265D01*
X089236Y027282D01*
X089213Y027303D01*
X089194Y027326D01*
X089177Y027351D01*
X089164Y027378D01*
X089155Y027407D01*
X089149Y027437D01*
X089147Y027467D01*
X091115Y029435D02*
X091117Y029465D01*
X091123Y029495D01*
X091132Y029524D01*
X091145Y029551D01*
X091162Y029576D01*
X091181Y029599D01*
X091204Y029620D01*
X091229Y029637D01*
X091255Y029651D01*
X091284Y029661D01*
X091313Y029668D01*
X091343Y029671D01*
X091374Y029670D01*
X091404Y029665D01*
X091433Y029656D01*
X091460Y029644D01*
X091486Y029629D01*
X091510Y029610D01*
X091531Y029588D01*
X091549Y029564D01*
X091564Y029537D01*
X091575Y029509D01*
X091583Y029480D01*
X091587Y029450D01*
X091587Y029420D01*
X091583Y029390D01*
X091575Y029361D01*
X091564Y029333D01*
X091549Y029306D01*
X091531Y029282D01*
X091510Y029260D01*
X091486Y029241D01*
X091460Y029226D01*
X091433Y029214D01*
X091404Y029205D01*
X091374Y029200D01*
X091343Y029199D01*
X091313Y029202D01*
X091284Y029209D01*
X091255Y029219D01*
X091229Y029233D01*
X091204Y029250D01*
X091181Y029271D01*
X091162Y029294D01*
X091145Y029319D01*
X091132Y029346D01*
X091123Y029375D01*
X091117Y029405D01*
X091115Y029435D01*
X092100Y029435D02*
X092102Y029465D01*
X092108Y029495D01*
X092117Y029524D01*
X092130Y029551D01*
X092147Y029576D01*
X092166Y029599D01*
X092189Y029620D01*
X092214Y029637D01*
X092240Y029651D01*
X092269Y029661D01*
X092298Y029668D01*
X092328Y029671D01*
X092359Y029670D01*
X092389Y029665D01*
X092418Y029656D01*
X092445Y029644D01*
X092471Y029629D01*
X092495Y029610D01*
X092516Y029588D01*
X092534Y029564D01*
X092549Y029537D01*
X092560Y029509D01*
X092568Y029480D01*
X092572Y029450D01*
X092572Y029420D01*
X092568Y029390D01*
X092560Y029361D01*
X092549Y029333D01*
X092534Y029306D01*
X092516Y029282D01*
X092495Y029260D01*
X092471Y029241D01*
X092445Y029226D01*
X092418Y029214D01*
X092389Y029205D01*
X092359Y029200D01*
X092328Y029199D01*
X092298Y029202D01*
X092269Y029209D01*
X092240Y029219D01*
X092214Y029233D01*
X092189Y029250D01*
X092166Y029271D01*
X092147Y029294D01*
X092130Y029319D01*
X092117Y029346D01*
X092108Y029375D01*
X092102Y029405D01*
X092100Y029435D01*
X092100Y030598D02*
X092102Y030628D01*
X092108Y030658D01*
X092117Y030687D01*
X092130Y030714D01*
X092147Y030739D01*
X092166Y030762D01*
X092189Y030783D01*
X092214Y030800D01*
X092240Y030814D01*
X092269Y030824D01*
X092298Y030831D01*
X092328Y030834D01*
X092359Y030833D01*
X092389Y030828D01*
X092418Y030819D01*
X092445Y030807D01*
X092471Y030792D01*
X092495Y030773D01*
X092516Y030751D01*
X092534Y030727D01*
X092549Y030700D01*
X092560Y030672D01*
X092568Y030643D01*
X092572Y030613D01*
X092572Y030583D01*
X092568Y030553D01*
X092560Y030524D01*
X092549Y030496D01*
X092534Y030469D01*
X092516Y030445D01*
X092495Y030423D01*
X092471Y030404D01*
X092445Y030389D01*
X092418Y030377D01*
X092389Y030368D01*
X092359Y030363D01*
X092328Y030362D01*
X092298Y030365D01*
X092269Y030372D01*
X092240Y030382D01*
X092214Y030396D01*
X092189Y030413D01*
X092166Y030434D01*
X092147Y030457D01*
X092130Y030482D01*
X092117Y030509D01*
X092108Y030538D01*
X092102Y030568D01*
X092100Y030598D01*
X091115Y030598D02*
X091117Y030628D01*
X091123Y030658D01*
X091132Y030687D01*
X091145Y030714D01*
X091162Y030739D01*
X091181Y030762D01*
X091204Y030783D01*
X091229Y030800D01*
X091255Y030814D01*
X091284Y030824D01*
X091313Y030831D01*
X091343Y030834D01*
X091374Y030833D01*
X091404Y030828D01*
X091433Y030819D01*
X091460Y030807D01*
X091486Y030792D01*
X091510Y030773D01*
X091531Y030751D01*
X091549Y030727D01*
X091564Y030700D01*
X091575Y030672D01*
X091583Y030643D01*
X091587Y030613D01*
X091587Y030583D01*
X091583Y030553D01*
X091575Y030524D01*
X091564Y030496D01*
X091549Y030469D01*
X091531Y030445D01*
X091510Y030423D01*
X091486Y030404D01*
X091460Y030389D01*
X091433Y030377D01*
X091404Y030368D01*
X091374Y030363D01*
X091343Y030362D01*
X091313Y030365D01*
X091284Y030372D01*
X091255Y030382D01*
X091229Y030396D01*
X091204Y030413D01*
X091181Y030434D01*
X091162Y030457D01*
X091145Y030482D01*
X091132Y030509D01*
X091123Y030538D01*
X091117Y030568D01*
X091115Y030598D01*
X089147Y032567D02*
X089149Y032597D01*
X089155Y032627D01*
X089164Y032656D01*
X089177Y032683D01*
X089194Y032708D01*
X089213Y032731D01*
X089236Y032752D01*
X089261Y032769D01*
X089287Y032783D01*
X089316Y032793D01*
X089345Y032800D01*
X089375Y032803D01*
X089406Y032802D01*
X089436Y032797D01*
X089465Y032788D01*
X089492Y032776D01*
X089518Y032761D01*
X089542Y032742D01*
X089563Y032720D01*
X089581Y032696D01*
X089596Y032669D01*
X089607Y032641D01*
X089615Y032612D01*
X089619Y032582D01*
X089619Y032552D01*
X089615Y032522D01*
X089607Y032493D01*
X089596Y032465D01*
X089581Y032438D01*
X089563Y032414D01*
X089542Y032392D01*
X089518Y032373D01*
X089492Y032358D01*
X089465Y032346D01*
X089436Y032337D01*
X089406Y032332D01*
X089375Y032331D01*
X089345Y032334D01*
X089316Y032341D01*
X089287Y032351D01*
X089261Y032365D01*
X089236Y032382D01*
X089213Y032403D01*
X089194Y032426D01*
X089177Y032451D01*
X089164Y032478D01*
X089155Y032507D01*
X089149Y032537D01*
X089147Y032567D01*
X091115Y034535D02*
X091117Y034565D01*
X091123Y034595D01*
X091132Y034624D01*
X091145Y034651D01*
X091162Y034676D01*
X091181Y034699D01*
X091204Y034720D01*
X091229Y034737D01*
X091255Y034751D01*
X091284Y034761D01*
X091313Y034768D01*
X091343Y034771D01*
X091374Y034770D01*
X091404Y034765D01*
X091433Y034756D01*
X091460Y034744D01*
X091486Y034729D01*
X091510Y034710D01*
X091531Y034688D01*
X091549Y034664D01*
X091564Y034637D01*
X091575Y034609D01*
X091583Y034580D01*
X091587Y034550D01*
X091587Y034520D01*
X091583Y034490D01*
X091575Y034461D01*
X091564Y034433D01*
X091549Y034406D01*
X091531Y034382D01*
X091510Y034360D01*
X091486Y034341D01*
X091460Y034326D01*
X091433Y034314D01*
X091404Y034305D01*
X091374Y034300D01*
X091343Y034299D01*
X091313Y034302D01*
X091284Y034309D01*
X091255Y034319D01*
X091229Y034333D01*
X091204Y034350D01*
X091181Y034371D01*
X091162Y034394D01*
X091145Y034419D01*
X091132Y034446D01*
X091123Y034475D01*
X091117Y034505D01*
X091115Y034535D01*
X092100Y034535D02*
X092102Y034565D01*
X092108Y034595D01*
X092117Y034624D01*
X092130Y034651D01*
X092147Y034676D01*
X092166Y034699D01*
X092189Y034720D01*
X092214Y034737D01*
X092240Y034751D01*
X092269Y034761D01*
X092298Y034768D01*
X092328Y034771D01*
X092359Y034770D01*
X092389Y034765D01*
X092418Y034756D01*
X092445Y034744D01*
X092471Y034729D01*
X092495Y034710D01*
X092516Y034688D01*
X092534Y034664D01*
X092549Y034637D01*
X092560Y034609D01*
X092568Y034580D01*
X092572Y034550D01*
X092572Y034520D01*
X092568Y034490D01*
X092560Y034461D01*
X092549Y034433D01*
X092534Y034406D01*
X092516Y034382D01*
X092495Y034360D01*
X092471Y034341D01*
X092445Y034326D01*
X092418Y034314D01*
X092389Y034305D01*
X092359Y034300D01*
X092328Y034299D01*
X092298Y034302D01*
X092269Y034309D01*
X092240Y034319D01*
X092214Y034333D01*
X092189Y034350D01*
X092166Y034371D01*
X092147Y034394D01*
X092130Y034419D01*
X092117Y034446D01*
X092108Y034475D01*
X092102Y034505D01*
X092100Y034535D01*
X092100Y035698D02*
X092102Y035728D01*
X092108Y035758D01*
X092117Y035787D01*
X092130Y035814D01*
X092147Y035839D01*
X092166Y035862D01*
X092189Y035883D01*
X092214Y035900D01*
X092240Y035914D01*
X092269Y035924D01*
X092298Y035931D01*
X092328Y035934D01*
X092359Y035933D01*
X092389Y035928D01*
X092418Y035919D01*
X092445Y035907D01*
X092471Y035892D01*
X092495Y035873D01*
X092516Y035851D01*
X092534Y035827D01*
X092549Y035800D01*
X092560Y035772D01*
X092568Y035743D01*
X092572Y035713D01*
X092572Y035683D01*
X092568Y035653D01*
X092560Y035624D01*
X092549Y035596D01*
X092534Y035569D01*
X092516Y035545D01*
X092495Y035523D01*
X092471Y035504D01*
X092445Y035489D01*
X092418Y035477D01*
X092389Y035468D01*
X092359Y035463D01*
X092328Y035462D01*
X092298Y035465D01*
X092269Y035472D01*
X092240Y035482D01*
X092214Y035496D01*
X092189Y035513D01*
X092166Y035534D01*
X092147Y035557D01*
X092130Y035582D01*
X092117Y035609D01*
X092108Y035638D01*
X092102Y035668D01*
X092100Y035698D01*
X091115Y035698D02*
X091117Y035728D01*
X091123Y035758D01*
X091132Y035787D01*
X091145Y035814D01*
X091162Y035839D01*
X091181Y035862D01*
X091204Y035883D01*
X091229Y035900D01*
X091255Y035914D01*
X091284Y035924D01*
X091313Y035931D01*
X091343Y035934D01*
X091374Y035933D01*
X091404Y035928D01*
X091433Y035919D01*
X091460Y035907D01*
X091486Y035892D01*
X091510Y035873D01*
X091531Y035851D01*
X091549Y035827D01*
X091564Y035800D01*
X091575Y035772D01*
X091583Y035743D01*
X091587Y035713D01*
X091587Y035683D01*
X091583Y035653D01*
X091575Y035624D01*
X091564Y035596D01*
X091549Y035569D01*
X091531Y035545D01*
X091510Y035523D01*
X091486Y035504D01*
X091460Y035489D01*
X091433Y035477D01*
X091404Y035468D01*
X091374Y035463D01*
X091343Y035462D01*
X091313Y035465D01*
X091284Y035472D01*
X091255Y035482D01*
X091229Y035496D01*
X091204Y035513D01*
X091181Y035534D01*
X091162Y035557D01*
X091145Y035582D01*
X091132Y035609D01*
X091123Y035638D01*
X091117Y035668D01*
X091115Y035698D01*
X089147Y037667D02*
X089149Y037697D01*
X089155Y037727D01*
X089164Y037756D01*
X089177Y037783D01*
X089194Y037808D01*
X089213Y037831D01*
X089236Y037852D01*
X089261Y037869D01*
X089287Y037883D01*
X089316Y037893D01*
X089345Y037900D01*
X089375Y037903D01*
X089406Y037902D01*
X089436Y037897D01*
X089465Y037888D01*
X089492Y037876D01*
X089518Y037861D01*
X089542Y037842D01*
X089563Y037820D01*
X089581Y037796D01*
X089596Y037769D01*
X089607Y037741D01*
X089615Y037712D01*
X089619Y037682D01*
X089619Y037652D01*
X089615Y037622D01*
X089607Y037593D01*
X089596Y037565D01*
X089581Y037538D01*
X089563Y037514D01*
X089542Y037492D01*
X089518Y037473D01*
X089492Y037458D01*
X089465Y037446D01*
X089436Y037437D01*
X089406Y037432D01*
X089375Y037431D01*
X089345Y037434D01*
X089316Y037441D01*
X089287Y037451D01*
X089261Y037465D01*
X089236Y037482D01*
X089213Y037503D01*
X089194Y037526D01*
X089177Y037551D01*
X089164Y037578D01*
X089155Y037607D01*
X089149Y037637D01*
X089147Y037667D01*
X091115Y039635D02*
X091117Y039665D01*
X091123Y039695D01*
X091132Y039724D01*
X091145Y039751D01*
X091162Y039776D01*
X091181Y039799D01*
X091204Y039820D01*
X091229Y039837D01*
X091255Y039851D01*
X091284Y039861D01*
X091313Y039868D01*
X091343Y039871D01*
X091374Y039870D01*
X091404Y039865D01*
X091433Y039856D01*
X091460Y039844D01*
X091486Y039829D01*
X091510Y039810D01*
X091531Y039788D01*
X091549Y039764D01*
X091564Y039737D01*
X091575Y039709D01*
X091583Y039680D01*
X091587Y039650D01*
X091587Y039620D01*
X091583Y039590D01*
X091575Y039561D01*
X091564Y039533D01*
X091549Y039506D01*
X091531Y039482D01*
X091510Y039460D01*
X091486Y039441D01*
X091460Y039426D01*
X091433Y039414D01*
X091404Y039405D01*
X091374Y039400D01*
X091343Y039399D01*
X091313Y039402D01*
X091284Y039409D01*
X091255Y039419D01*
X091229Y039433D01*
X091204Y039450D01*
X091181Y039471D01*
X091162Y039494D01*
X091145Y039519D01*
X091132Y039546D01*
X091123Y039575D01*
X091117Y039605D01*
X091115Y039635D01*
X092100Y039635D02*
X092102Y039665D01*
X092108Y039695D01*
X092117Y039724D01*
X092130Y039751D01*
X092147Y039776D01*
X092166Y039799D01*
X092189Y039820D01*
X092214Y039837D01*
X092240Y039851D01*
X092269Y039861D01*
X092298Y039868D01*
X092328Y039871D01*
X092359Y039870D01*
X092389Y039865D01*
X092418Y039856D01*
X092445Y039844D01*
X092471Y039829D01*
X092495Y039810D01*
X092516Y039788D01*
X092534Y039764D01*
X092549Y039737D01*
X092560Y039709D01*
X092568Y039680D01*
X092572Y039650D01*
X092572Y039620D01*
X092568Y039590D01*
X092560Y039561D01*
X092549Y039533D01*
X092534Y039506D01*
X092516Y039482D01*
X092495Y039460D01*
X092471Y039441D01*
X092445Y039426D01*
X092418Y039414D01*
X092389Y039405D01*
X092359Y039400D01*
X092328Y039399D01*
X092298Y039402D01*
X092269Y039409D01*
X092240Y039419D01*
X092214Y039433D01*
X092189Y039450D01*
X092166Y039471D01*
X092147Y039494D01*
X092130Y039519D01*
X092117Y039546D01*
X092108Y039575D01*
X092102Y039605D01*
X092100Y039635D01*
X092100Y025498D02*
X092102Y025528D01*
X092108Y025558D01*
X092117Y025587D01*
X092130Y025614D01*
X092147Y025639D01*
X092166Y025662D01*
X092189Y025683D01*
X092214Y025700D01*
X092240Y025714D01*
X092269Y025724D01*
X092298Y025731D01*
X092328Y025734D01*
X092359Y025733D01*
X092389Y025728D01*
X092418Y025719D01*
X092445Y025707D01*
X092471Y025692D01*
X092495Y025673D01*
X092516Y025651D01*
X092534Y025627D01*
X092549Y025600D01*
X092560Y025572D01*
X092568Y025543D01*
X092572Y025513D01*
X092572Y025483D01*
X092568Y025453D01*
X092560Y025424D01*
X092549Y025396D01*
X092534Y025369D01*
X092516Y025345D01*
X092495Y025323D01*
X092471Y025304D01*
X092445Y025289D01*
X092418Y025277D01*
X092389Y025268D01*
X092359Y025263D01*
X092328Y025262D01*
X092298Y025265D01*
X092269Y025272D01*
X092240Y025282D01*
X092214Y025296D01*
X092189Y025313D01*
X092166Y025334D01*
X092147Y025357D01*
X092130Y025382D01*
X092117Y025409D01*
X092108Y025438D01*
X092102Y025468D01*
X092100Y025498D01*
X091115Y025498D02*
X091117Y025528D01*
X091123Y025558D01*
X091132Y025587D01*
X091145Y025614D01*
X091162Y025639D01*
X091181Y025662D01*
X091204Y025683D01*
X091229Y025700D01*
X091255Y025714D01*
X091284Y025724D01*
X091313Y025731D01*
X091343Y025734D01*
X091374Y025733D01*
X091404Y025728D01*
X091433Y025719D01*
X091460Y025707D01*
X091486Y025692D01*
X091510Y025673D01*
X091531Y025651D01*
X091549Y025627D01*
X091564Y025600D01*
X091575Y025572D01*
X091583Y025543D01*
X091587Y025513D01*
X091587Y025483D01*
X091583Y025453D01*
X091575Y025424D01*
X091564Y025396D01*
X091549Y025369D01*
X091531Y025345D01*
X091510Y025323D01*
X091486Y025304D01*
X091460Y025289D01*
X091433Y025277D01*
X091404Y025268D01*
X091374Y025263D01*
X091343Y025262D01*
X091313Y025265D01*
X091284Y025272D01*
X091255Y025282D01*
X091229Y025296D01*
X091204Y025313D01*
X091181Y025334D01*
X091162Y025357D01*
X091145Y025382D01*
X091132Y025409D01*
X091123Y025438D01*
X091117Y025468D01*
X091115Y025498D01*
X059241Y044917D02*
X059243Y044952D01*
X059249Y044986D01*
X059258Y045019D01*
X059272Y045052D01*
X059289Y045082D01*
X059309Y045110D01*
X059332Y045136D01*
X059358Y045159D01*
X059386Y045179D01*
X059416Y045196D01*
X059449Y045210D01*
X059482Y045219D01*
X059516Y045225D01*
X059551Y045227D01*
X059586Y045225D01*
X059620Y045219D01*
X059653Y045210D01*
X059686Y045196D01*
X059716Y045179D01*
X059744Y045159D01*
X059770Y045136D01*
X059793Y045110D01*
X059813Y045082D01*
X059830Y045052D01*
X059844Y045019D01*
X059853Y044986D01*
X059859Y044952D01*
X059861Y044917D01*
X059859Y044882D01*
X059853Y044848D01*
X059844Y044815D01*
X059830Y044782D01*
X059813Y044752D01*
X059793Y044724D01*
X059770Y044698D01*
X059744Y044675D01*
X059716Y044655D01*
X059686Y044638D01*
X059653Y044624D01*
X059620Y044615D01*
X059586Y044609D01*
X059551Y044607D01*
X059516Y044609D01*
X059482Y044615D01*
X059449Y044624D01*
X059416Y044638D01*
X059386Y044655D01*
X059358Y044675D01*
X059332Y044698D01*
X059309Y044724D01*
X059289Y044752D01*
X059272Y044782D01*
X059258Y044815D01*
X059249Y044848D01*
X059243Y044882D01*
X059241Y044917D01*
X059241Y045917D02*
X059243Y045952D01*
X059249Y045986D01*
X059258Y046019D01*
X059272Y046052D01*
X059289Y046082D01*
X059309Y046110D01*
X059332Y046136D01*
X059358Y046159D01*
X059386Y046179D01*
X059416Y046196D01*
X059449Y046210D01*
X059482Y046219D01*
X059516Y046225D01*
X059551Y046227D01*
X059586Y046225D01*
X059620Y046219D01*
X059653Y046210D01*
X059686Y046196D01*
X059716Y046179D01*
X059744Y046159D01*
X059770Y046136D01*
X059793Y046110D01*
X059813Y046082D01*
X059830Y046052D01*
X059844Y046019D01*
X059853Y045986D01*
X059859Y045952D01*
X059861Y045917D01*
X059859Y045882D01*
X059853Y045848D01*
X059844Y045815D01*
X059830Y045782D01*
X059813Y045752D01*
X059793Y045724D01*
X059770Y045698D01*
X059744Y045675D01*
X059716Y045655D01*
X059686Y045638D01*
X059653Y045624D01*
X059620Y045615D01*
X059586Y045609D01*
X059551Y045607D01*
X059516Y045609D01*
X059482Y045615D01*
X059449Y045624D01*
X059416Y045638D01*
X059386Y045655D01*
X059358Y045675D01*
X059332Y045698D01*
X059309Y045724D01*
X059289Y045752D01*
X059272Y045782D01*
X059258Y045815D01*
X059249Y045848D01*
X059243Y045882D01*
X059241Y045917D01*
X037071Y045917D02*
X037073Y045961D01*
X037079Y046004D01*
X037089Y046047D01*
X037102Y046088D01*
X037120Y046128D01*
X037141Y046166D01*
X037165Y046203D01*
X037193Y046237D01*
X037223Y046268D01*
X037257Y046296D01*
X037292Y046321D01*
X037330Y046343D01*
X037370Y046362D01*
X037411Y046376D01*
X037453Y046387D01*
X037496Y046394D01*
X037540Y046397D01*
X037584Y046396D01*
X037627Y046391D01*
X037670Y046382D01*
X037712Y046369D01*
X037752Y046353D01*
X037791Y046333D01*
X037828Y046309D01*
X037862Y046282D01*
X037894Y046253D01*
X037923Y046220D01*
X037949Y046185D01*
X037972Y046147D01*
X037991Y046108D01*
X038007Y046067D01*
X038019Y046025D01*
X038027Y045982D01*
X038031Y045939D01*
X038031Y045895D01*
X038027Y045852D01*
X038019Y045809D01*
X038007Y045767D01*
X037991Y045726D01*
X037972Y045687D01*
X037949Y045649D01*
X037923Y045614D01*
X037894Y045581D01*
X037862Y045552D01*
X037828Y045525D01*
X037791Y045501D01*
X037752Y045481D01*
X037712Y045465D01*
X037670Y045452D01*
X037627Y045443D01*
X037584Y045438D01*
X037540Y045437D01*
X037496Y045440D01*
X037453Y045447D01*
X037411Y045458D01*
X037370Y045472D01*
X037330Y045491D01*
X037292Y045513D01*
X037257Y045538D01*
X037223Y045566D01*
X037193Y045597D01*
X037165Y045631D01*
X037141Y045668D01*
X037120Y045706D01*
X037102Y045746D01*
X037089Y045787D01*
X037079Y045830D01*
X037073Y045873D01*
X037071Y045917D01*
X037071Y044917D02*
X037073Y044961D01*
X037079Y045004D01*
X037089Y045047D01*
X037102Y045088D01*
X037120Y045128D01*
X037141Y045166D01*
X037165Y045203D01*
X037193Y045237D01*
X037223Y045268D01*
X037257Y045296D01*
X037292Y045321D01*
X037330Y045343D01*
X037370Y045362D01*
X037411Y045376D01*
X037453Y045387D01*
X037496Y045394D01*
X037540Y045397D01*
X037584Y045396D01*
X037627Y045391D01*
X037670Y045382D01*
X037712Y045369D01*
X037752Y045353D01*
X037791Y045333D01*
X037828Y045309D01*
X037862Y045282D01*
X037894Y045253D01*
X037923Y045220D01*
X037949Y045185D01*
X037972Y045147D01*
X037991Y045108D01*
X038007Y045067D01*
X038019Y045025D01*
X038027Y044982D01*
X038031Y044939D01*
X038031Y044895D01*
X038027Y044852D01*
X038019Y044809D01*
X038007Y044767D01*
X037991Y044726D01*
X037972Y044687D01*
X037949Y044649D01*
X037923Y044614D01*
X037894Y044581D01*
X037862Y044552D01*
X037828Y044525D01*
X037791Y044501D01*
X037752Y044481D01*
X037712Y044465D01*
X037670Y044452D01*
X037627Y044443D01*
X037584Y044438D01*
X037540Y044437D01*
X037496Y044440D01*
X037453Y044447D01*
X037411Y044458D01*
X037370Y044472D01*
X037330Y044491D01*
X037292Y044513D01*
X037257Y044538D01*
X037223Y044566D01*
X037193Y044597D01*
X037165Y044631D01*
X037141Y044668D01*
X037120Y044706D01*
X037102Y044746D01*
X037089Y044787D01*
X037079Y044830D01*
X037073Y044873D01*
X037071Y044917D01*
X015071Y044917D02*
X015073Y044961D01*
X015079Y045004D01*
X015089Y045047D01*
X015102Y045088D01*
X015120Y045128D01*
X015141Y045166D01*
X015165Y045203D01*
X015193Y045237D01*
X015223Y045268D01*
X015257Y045296D01*
X015292Y045321D01*
X015330Y045343D01*
X015370Y045362D01*
X015411Y045376D01*
X015453Y045387D01*
X015496Y045394D01*
X015540Y045397D01*
X015584Y045396D01*
X015627Y045391D01*
X015670Y045382D01*
X015712Y045369D01*
X015752Y045353D01*
X015791Y045333D01*
X015828Y045309D01*
X015862Y045282D01*
X015894Y045253D01*
X015923Y045220D01*
X015949Y045185D01*
X015972Y045147D01*
X015991Y045108D01*
X016007Y045067D01*
X016019Y045025D01*
X016027Y044982D01*
X016031Y044939D01*
X016031Y044895D01*
X016027Y044852D01*
X016019Y044809D01*
X016007Y044767D01*
X015991Y044726D01*
X015972Y044687D01*
X015949Y044649D01*
X015923Y044614D01*
X015894Y044581D01*
X015862Y044552D01*
X015828Y044525D01*
X015791Y044501D01*
X015752Y044481D01*
X015712Y044465D01*
X015670Y044452D01*
X015627Y044443D01*
X015584Y044438D01*
X015540Y044437D01*
X015496Y044440D01*
X015453Y044447D01*
X015411Y044458D01*
X015370Y044472D01*
X015330Y044491D01*
X015292Y044513D01*
X015257Y044538D01*
X015223Y044566D01*
X015193Y044597D01*
X015165Y044631D01*
X015141Y044668D01*
X015120Y044706D01*
X015102Y044746D01*
X015089Y044787D01*
X015079Y044830D01*
X015073Y044873D01*
X015071Y044917D01*
X015071Y045917D02*
X015073Y045961D01*
X015079Y046004D01*
X015089Y046047D01*
X015102Y046088D01*
X015120Y046128D01*
X015141Y046166D01*
X015165Y046203D01*
X015193Y046237D01*
X015223Y046268D01*
X015257Y046296D01*
X015292Y046321D01*
X015330Y046343D01*
X015370Y046362D01*
X015411Y046376D01*
X015453Y046387D01*
X015496Y046394D01*
X015540Y046397D01*
X015584Y046396D01*
X015627Y046391D01*
X015670Y046382D01*
X015712Y046369D01*
X015752Y046353D01*
X015791Y046333D01*
X015828Y046309D01*
X015862Y046282D01*
X015894Y046253D01*
X015923Y046220D01*
X015949Y046185D01*
X015972Y046147D01*
X015991Y046108D01*
X016007Y046067D01*
X016019Y046025D01*
X016027Y045982D01*
X016031Y045939D01*
X016031Y045895D01*
X016027Y045852D01*
X016019Y045809D01*
X016007Y045767D01*
X015991Y045726D01*
X015972Y045687D01*
X015949Y045649D01*
X015923Y045614D01*
X015894Y045581D01*
X015862Y045552D01*
X015828Y045525D01*
X015791Y045501D01*
X015752Y045481D01*
X015712Y045465D01*
X015670Y045452D01*
X015627Y045443D01*
X015584Y045438D01*
X015540Y045437D01*
X015496Y045440D01*
X015453Y045447D01*
X015411Y045458D01*
X015370Y045472D01*
X015330Y045491D01*
X015292Y045513D01*
X015257Y045538D01*
X015223Y045566D01*
X015193Y045597D01*
X015165Y045631D01*
X015141Y045668D01*
X015120Y045706D01*
X015102Y045746D01*
X015089Y045787D01*
X015079Y045830D01*
X015073Y045873D01*
X015071Y045917D01*
D12*
X030601Y011167D02*
X030601Y008317D01*
X030851Y008067D01*
X049251Y008067D01*
X049501Y008317D01*
X049501Y011167D01*
X051601Y011167D01*
X051601Y008317D01*
X051851Y008067D01*
X083251Y008067D01*
X083501Y008317D01*
X083501Y011167D01*
X085601Y011167D01*
X085601Y008817D01*
X085851Y008567D01*
X092451Y008567D01*
M02*
